<svg width="430" height="932" viewBox="0 0 430 932" fill="none" xmlns="http://www.w3.org/2000/svg">
<rect width="430" height="932" fill="#235C95"/>
<g filter="url(#filter0_d_13_2951)">
<rect x="76.9365" y="381.379" width="276.127" height="169.243" rx="13.5" fill="white"/>
<path d="M147.613 420.769C148.457 421.149 149.331 421.344 150.242 421.344C151.153 421.344 152.035 421.149 152.908 420.769C153.722 420.35 154.373 419.797 154.856 419.104C155.312 418.38 155.535 417.617 155.535 416.818C155.535 416.019 155.297 415.295 154.811 414.57C154.356 413.824 153.692 413.255 152.818 412.867C152.005 412.479 151.146 412.284 150.242 412.284C149.338 412.284 148.472 412.479 147.658 412.867C146.845 413.233 146.194 413.801 145.718 414.57C145.202 415.324 144.941 416.07 144.941 416.818C144.941 417.566 145.202 418.355 145.718 419.104C146.166 419.775 146.8 420.328 147.615 420.769H147.613Z" fill="#235C95"/>
<path d="M134.219 420.769C135.033 421.149 135.891 421.344 136.795 421.344C137.699 421.344 138.595 421.149 139.469 420.769C140.313 420.35 140.963 419.797 141.417 419.104C141.865 418.38 142.096 417.617 142.096 416.818C142.096 416.019 141.85 415.295 141.372 414.57C140.916 413.824 140.253 413.255 139.379 412.867C138.565 412.479 137.706 412.284 136.795 412.284C135.884 412.284 135.033 412.479 134.219 412.867C133.405 413.233 132.754 413.801 132.271 414.57C131.763 415.324 131.502 416.07 131.502 416.818C131.502 417.566 131.763 418.355 132.271 419.104C132.726 419.797 133.375 420.35 134.219 420.769Z" fill="#235C95"/>
<path d="M183.868 405.416C180.313 405.416 178.528 406.91 178.528 409.903V454.901H173.01C169.896 454.879 167.537 454.864 165.925 454.864H163.228V444.934V443.349V426.765C163.228 423.695 161.436 422.158 157.845 422.158C154.693 422.158 152.953 423.382 152.618 425.824C152.58 426.039 152.565 426.272 152.558 426.517V426.525C152.408 426.435 152.252 426.36 152.095 426.294C152.095 426.294 152.087 426.287 152.08 426.287C151.823 426.161 151.555 426.054 151.288 425.944C150.791 425.737 150.285 425.544 149.764 425.385C148.397 424.961 147.058 424.665 145.748 424.496C145.699 424.49 145.648 424.481 145.598 424.474C145.586 424.474 145.573 424.474 145.56 424.47C145.547 424.47 145.534 424.466 145.523 424.466C144.746 424.376 143.993 424.331 143.237 424.331C142.886 424.331 142.536 424.339 142.191 424.361C141.84 424.384 141.497 424.406 141.152 424.451H141.107C140.831 424.481 140.561 424.511 140.286 424.564C140.188 424.579 140.091 424.594 139.995 424.609C139.435 424.706 138.891 424.832 138.345 424.989C138.07 425.064 137.792 425.154 137.524 425.235C137.256 425.325 136.986 425.422 136.718 425.518C136.62 425.555 136.53 425.593 136.435 425.638C136.009 425.803 135.583 425.989 135.158 426.191C134.389 426.564 133.628 426.99 132.88 427.483C132.133 427.961 131.393 428.507 130.669 429.103C130.431 429.305 130.191 429.514 129.96 429.724C129.737 429.934 129.512 430.142 129.296 430.365C129.154 430.515 129.013 430.655 128.871 430.805C128.595 431.104 128.333 431.411 128.072 431.732C127.945 431.889 127.819 432.045 127.699 432.21C127.15 432.941 126.655 433.714 126.214 434.525C125.773 435.337 125.383 436.187 125.048 437.072C124.78 437.765 124.547 438.469 124.369 439.17C124.316 439.342 124.271 439.513 124.234 439.685C124.166 439.984 124.106 440.276 124.046 440.574C123.996 440.839 123.958 441.11 123.921 441.38C123.913 441.431 123.904 441.48 123.898 441.53C123.861 441.799 123.823 442.076 123.801 442.352C123.771 442.642 123.756 442.942 123.741 443.24C123.718 443.704 123.711 444.174 123.726 444.645C123.733 444.988 123.756 445.339 123.786 445.684C123.816 446.042 123.853 446.385 123.898 446.743V446.75C123.91 446.835 123.928 446.919 123.941 447.004C124.001 447.418 124.065 447.829 124.151 448.243V448.25C124.196 448.474 124.241 448.691 124.294 448.907C124.309 448.974 124.324 449.034 124.354 449.072V449.079C124.354 449.079 124.361 449.094 124.369 449.102C124.376 449.117 124.391 449.132 124.406 449.147C124.429 449.169 124.451 449.192 124.489 449.199C124.489 449.199 124.489 449.199 124.491 449.199C124.536 449.222 124.594 449.222 124.667 449.214C127.736 448.969 130.753 449.222 133.733 449.93C133.733 449.93 133.738 449.933 133.748 449.938C133.8 449.945 133.853 449.96 133.905 449.975C133.943 449.983 133.98 449.99 134.018 450.005C134.07 450.013 134.115 450.02 134.168 450.035C134.34 450.065 134.503 450.11 134.676 450.155C134.803 450.185 134.929 450.23 135.049 450.268C135.93 450.581 136.639 451.127 137.215 451.895C137.961 452.874 138.715 453.851 139.47 454.83C139.5 454.867 139.53 454.912 139.56 454.95C139.791 455.248 140.016 455.548 140.246 455.839C140.449 456.099 140.65 456.362 140.852 456.622C140.905 456.69 140.972 456.757 141.047 456.802C141.092 456.832 141.145 456.855 141.19 456.877C141.473 456.99 141.735 456.93 141.943 456.699V456.692C142.056 456.557 142.116 456.431 142.123 456.289C142.138 456.146 142.101 455.998 142.033 455.84C142.018 455.818 142.011 455.803 142.003 455.78C141.876 455.505 141.75 455.235 141.623 454.952C141.608 454.914 141.585 454.869 141.57 454.832C140.659 452.884 139.763 450.934 138.851 448.993C138.403 448.044 137.702 447.328 136.746 446.88C136.185 446.619 135.619 446.364 135.051 446.104C134.893 446.029 134.738 445.954 134.58 445.886V445.879C134.445 445.811 134.305 445.744 134.17 445.685C133.864 445.543 133.564 445.402 133.258 445.26C133.138 445.2 133.035 445.14 132.93 445.082C132.825 445.022 132.728 444.947 132.64 444.864C132.527 444.767 132.439 444.66 132.36 444.544C132.355 444.536 132.347 444.529 132.341 444.521C132.221 444.326 132.139 444.103 132.111 443.85V443.842C132.096 443.745 132.088 443.647 132.096 443.544V443.514C132.163 442.17 132.431 440.855 133.037 439.631C133.388 438.915 133.738 438.174 134.201 437.533L134.246 437.465C135.598 435.643 137.218 434.321 139.093 433.552C140.55 432.947 142.155 432.664 143.91 432.731C145.478 432.799 146.912 433.112 148.196 433.657C148.78 433.91 149.338 434.21 149.861 434.569C150.548 435.024 151.183 435.577 151.766 436.204C152.222 436.704 152.648 437.257 153.028 437.854C153.208 438.122 153.379 438.399 153.536 438.69V438.697C153.536 438.697 153.544 438.712 153.551 438.72C153.668 438.935 153.769 439.153 153.872 439.37C154.176 440.021 154.423 440.685 154.6 441.356C154.678 441.656 154.744 441.956 154.798 442.258C154.828 442.438 154.851 442.609 154.873 442.789C154.888 442.899 154.894 443.012 154.905 443.124C154.916 443.246 154.933 443.366 154.941 443.492C154.963 443.865 154.971 444.238 154.948 444.611C154.941 444.776 154.933 444.932 154.918 445.097C154.916 445.121 154.913 445.147 154.911 445.172C154.898 445.297 154.886 445.421 154.873 445.552C154.86 445.676 154.84 445.802 154.821 445.925C154.819 445.942 154.817 445.961 154.813 445.978C154.568 447.568 153.962 449.13 153.028 450.54C152.878 450.763 152.73 450.988 152.558 451.204C152.4 451.421 152.23 451.629 152.05 451.837L152.042 451.845C151.378 452.606 150.623 453.279 149.771 453.808C149.151 454.196 148.472 454.494 147.808 454.794C147.778 454.809 147.748 454.817 147.718 454.832C147.688 454.847 147.658 454.854 147.628 454.869H147.613C147.553 454.892 147.493 454.922 147.433 454.944C147.053 455.094 146.665 455.227 146.276 455.325C146.068 455.377 145.862 455.398 145.669 455.377C145.669 455.377 145.667 455.377 145.665 455.377C145.53 455.377 145.405 455.344 145.281 455.295C145.268 455.289 145.253 455.287 145.24 455.28C145.06 455.205 144.896 455.092 144.746 454.944C144.737 454.935 144.731 454.929 144.724 454.922L144.679 454.877L144.671 454.869C144.664 454.854 144.656 454.847 144.641 454.832C144.626 454.824 144.619 454.809 144.611 454.802C144.036 454.085 143.492 453.337 142.954 452.584C142.371 451.785 141.767 451.009 140.931 450.455C140.758 450.335 140.565 450.238 140.385 450.127C140.691 450.956 141.041 451.732 141.401 452.495C141.767 453.287 142.125 454.055 142.483 454.834C142.491 454.849 142.498 454.856 142.506 454.871V454.879C142.506 454.879 142.51 454.89 142.513 454.895C142.521 454.914 142.53 454.937 142.536 454.954C142.62 455.135 142.703 455.329 142.787 455.512C142.793 455.525 142.798 455.539 142.804 455.552C142.813 455.569 142.817 455.584 142.825 455.602C142.84 455.636 142.855 455.672 142.864 455.702C142.879 455.747 142.894 455.792 142.909 455.844C143.051 456.36 142.931 456.868 142.611 457.241C142.573 457.286 142.536 457.324 142.491 457.361C142.446 457.406 142.393 457.436 142.341 457.474C141.658 457.94 140.873 457.854 140.299 457.26C140.295 457.256 140.291 457.252 140.288 457.249C140.248 457.215 140.215 457.172 140.181 457.13C140.17 457.117 140.156 457.106 140.147 457.093C140.035 456.947 139.922 456.799 139.808 456.652C139.581 456.358 139.354 456.065 139.131 455.771C138.908 455.488 138.69 455.203 138.475 454.912C138.437 454.867 138.407 454.822 138.37 454.777V454.77C138.37 454.77 138.362 454.762 138.355 454.762L138.347 454.755C137.824 454.084 137.301 453.403 136.795 452.717C136.309 452.066 135.778 451.507 135.055 451.187C134.92 451.112 134.771 451.059 134.614 451.014V451.007C134.576 450.992 134.539 450.977 134.494 450.969C134.404 450.947 134.314 450.917 134.226 450.902V450.894H134.211C130.978 450.08 127.706 449.76 124.376 450.08H124.369C124.196 450.095 124.048 450.14 123.906 450.208V450.215C123.726 450.305 123.57 450.433 123.45 450.596C123.323 450.746 123.24 450.932 123.19 451.134C123.077 451.635 123.227 452.105 123.54 452.426L123.555 452.441C123.713 452.599 123.921 452.717 124.161 452.777C124.243 452.807 124.333 452.822 124.429 452.829C124.489 452.844 124.556 452.844 124.624 452.844C125.43 452.829 126.236 452.769 127.043 452.732C127.311 452.717 127.573 452.709 127.841 452.694C127.916 452.687 127.982 452.694 128.042 452.717C128.087 452.732 128.132 452.754 128.17 452.784C128.192 452.805 128.205 452.831 128.222 452.857C128.258 452.91 128.282 452.974 128.291 453.05C128.291 453.06 128.297 453.067 128.297 453.077C128.31 453.191 128.273 453.281 128.213 453.352C128.203 453.364 128.198 453.38 128.186 453.392C128.111 453.452 128.006 453.497 127.888 453.519C127.813 453.527 127.746 453.527 127.671 453.534C126.752 453.579 125.833 453.617 124.915 453.677C124.772 453.684 124.646 453.722 124.526 453.774C124.421 453.812 124.324 453.872 124.243 453.939V453.947C124.086 454.059 123.96 454.215 123.878 454.387V454.395C123.863 454.41 123.863 454.417 123.855 454.432C123.78 454.59 123.743 454.768 123.75 454.955C123.773 455.374 123.968 455.709 124.273 455.919C124.296 455.934 124.311 455.949 124.333 455.957C124.483 456.054 124.661 456.122 124.856 456.144C124.909 456.159 124.961 456.159 125.014 456.159H125.029C125.171 456.159 125.312 456.144 125.462 456.144C126.433 456.092 127.403 456.039 128.374 455.994C128.479 455.987 128.569 455.994 128.65 456.017C128.668 456.022 128.681 456.035 128.698 456.043C128.732 456.056 128.768 456.067 128.792 456.092C128.875 456.159 128.92 456.257 128.927 456.382C128.927 456.463 128.906 456.53 128.871 456.59C128.863 456.602 128.86 456.617 128.852 456.628C128.833 456.654 128.796 456.669 128.766 456.692C128.736 456.714 128.717 456.74 128.68 456.755C128.605 456.785 128.515 456.808 128.411 456.815C128.359 456.815 128.306 456.815 128.254 456.823C127.388 456.868 126.514 456.905 125.648 456.95C125.52 456.958 125.402 456.98 125.297 457.018C125.282 457.025 125.26 457.033 125.245 457.04V457.048C125.102 457.093 124.976 457.16 124.879 457.25C124.856 457.258 124.841 457.273 124.826 457.288C124.588 457.49 124.453 457.796 124.461 458.154C124.476 458.795 125.006 459.274 125.715 459.281C125.835 459.281 125.961 459.289 126.081 459.289H126.201C126.276 459.289 126.343 459.296 126.416 459.296C126.49 459.296 126.574 459.304 126.647 459.304H126.655C127.348 459.319 128.021 459.334 128.715 459.364C128.83 459.367 128.938 459.382 129.043 459.403C129.418 459.474 129.75 459.649 130.03 459.939C130.082 459.992 130.136 460.039 130.195 460.084C130.202 460.089 130.21 460.097 130.217 460.104C130.249 460.085 130.275 460.067 130.301 460.048C130.318 460.037 130.337 460.025 130.352 460.014C131.293 459.253 132.293 459.26 133.211 460.059C133.305 460.138 133.373 460.155 133.433 460.136C133.463 460.127 133.493 460.11 133.521 460.087C133.551 460.065 133.581 460.037 133.615 460.007C134.029 459.622 134.545 459.44 135.053 459.459C135.18 459.463 135.306 459.48 135.431 459.51C135.805 459.598 136.161 459.797 136.451 460.104C136.549 460.202 136.62 460.241 136.71 460.204C136.744 460.189 136.781 460.166 136.825 460.127C136.862 460.093 136.9 460.067 136.937 460.037C137.156 459.862 137.383 459.729 137.621 459.649C137.901 459.555 138.191 459.529 138.49 459.572C138.69 459.6 138.893 459.66 139.101 459.752C139.391 459.883 139.613 460.067 139.798 460.273C140.119 460.627 140.305 461.077 140.325 461.634C140.348 462.247 140.363 462.866 140.363 463.479C140.355 463.74 140.445 463.83 140.698 463.867C141.064 463.912 141.43 463.957 141.795 463.98C141.966 463.995 142.136 464.006 142.305 464.015C142.639 464.038 142.971 464.053 143.303 464.053H183.872C187.405 464.053 189.175 462.523 189.175 459.446V410.015C189.175 406.946 187.405 405.416 183.872 405.416H183.868Z" fill="#235C95"/>
<path d="M244.054 424.599H237.124L247.444 413.33C249.825 411.007 249.722 408.872 247.131 406.909C245.772 405.877 244.435 405.386 243.12 405.437C241.814 405.489 240.582 406.13 239.432 407.37L223.004 425.171C222.368 425.792 221.929 426.418 221.689 427.054C221.451 427.689 221.331 428.398 221.331 429.197C221.331 432.169 223.109 433.648 226.671 433.648L244.002 433.73C247.622 433.73 249.437 435.29 249.437 438.412V454.899H210.465C206.695 454.899 204.805 453.412 204.805 450.448V410.098C204.745 406.976 202.982 405.401 199.51 405.379C195.977 405.379 194.215 406.984 194.215 410.21V450.332C194.215 459.47 199.598 464.034 210.374 464.034H212.905C212.942 464.034 212.987 464.034 213.025 464.027C213.062 464.034 213.1 464.034 213.137 464.034H254.73C258.293 464.034 260.07 462.54 260.07 459.547V438.609C260.07 429.268 254.73 424.601 244.054 424.601V424.599Z" fill="#235C95"/>
<path d="M276.574 449.57C276.563 449.205 276.426 448.897 276.206 448.682C276.096 448.575 275.966 448.488 275.82 448.432C275.674 448.374 275.513 448.346 275.34 448.346C275.258 448.346 275.177 448.357 275.1 448.374C275.023 448.391 274.948 448.415 274.877 448.447C274.451 448.633 274.153 449.058 274.153 449.585C274.153 449.898 274.153 450.204 274.161 450.519C274.168 451.11 274.191 451.706 274.228 452.297C274.243 452.565 274.423 452.835 274.481 452.975C275.005 453.401 275.445 453.498 275.916 453.273C276.379 453.056 276.632 452.668 276.632 452.154C276.632 451.878 276.625 451.601 276.617 451.333C276.61 450.742 276.595 450.153 276.572 449.57H276.574Z" fill="#235C95"/>
<path d="M279.739 449.428C279.734 449.304 279.711 449.192 279.672 449.087C279.632 448.982 279.578 448.888 279.511 448.804C279.376 448.635 279.186 448.505 278.963 448.419C278.869 448.382 278.774 448.369 278.68 448.357C278.659 448.355 278.639 448.344 278.618 448.344C278.387 448.333 278.157 448.395 277.945 448.513C277.838 448.573 277.737 448.646 277.641 448.732C277.566 448.97 277.431 449.21 277.426 449.449C277.418 450.135 277.426 450.83 277.456 451.524C277.463 451.777 277.471 452.025 277.486 452.278C277.516 452.914 278.046 453.352 278.657 453.337C279.293 453.33 279.784 452.859 279.792 452.203V451.875C279.792 451.858 279.792 451.839 279.792 451.822C279.792 451.025 279.769 450.221 279.741 449.426L279.739 449.428Z" fill="#235C95"/>
<path d="M306.285 427.436C306.008 426.296 305.627 425.192 305.141 424.121C304.656 423.05 304.065 422.012 303.369 421.009C302.904 420.339 302.394 419.685 301.836 419.044C301.549 418.714 301.253 418.397 300.949 418.089C299.256 416.383 297.302 415.044 295.106 414.109C294.542 413.867 293.966 413.644 293.368 413.458C291.128 412.757 288.954 412.406 286.841 412.406C286.491 412.406 286.14 412.414 285.795 412.436C285.458 412.457 285.128 412.481 284.798 412.522C284.784 412.522 284.769 412.522 284.756 412.526C284.466 412.556 284.181 412.594 283.89 412.646L283.599 412.691C282.488 412.894 281.396 413.192 280.322 413.602C279.799 413.797 279.278 414.02 278.762 414.274C277.217 415.005 275.723 415.976 274.275 417.163C271.691 419.276 269.846 421.972 268.652 425.092C268.316 425.974 268.039 426.87 267.838 427.759C267.771 428.057 267.711 428.349 267.651 428.647C267.533 429.234 267.458 429.823 267.405 430.417C267.405 430.419 267.405 430.423 267.405 430.425C267.39 430.575 267.384 430.73 267.375 430.884C267.366 431.027 267.353 431.169 267.347 431.314C267.324 431.777 267.317 432.247 267.332 432.718C267.339 433.061 267.362 433.412 267.392 433.757C267.474 434.824 267.645 435.9 267.9 436.982C267.953 437.205 268.013 437.31 268.273 437.287C271.491 437.027 274.65 437.325 277.772 438.109C277.944 438.139 278.108 438.184 278.28 438.229C279.341 438.504 280.163 439.095 280.819 439.969C281.565 440.947 282.319 441.924 283.074 442.903C283.089 442.922 283.104 442.942 283.119 442.963C283.134 442.984 283.149 443.004 283.164 443.023C283.598 443.584 284.023 444.142 284.456 444.695C284.477 444.724 284.507 444.746 284.531 444.77C284.608 444.845 284.696 444.911 284.792 444.95C284.863 444.979 284.933 444.995 285 445.003C285.068 445.01 285.133 445.005 285.197 444.99C285.324 444.96 285.441 444.887 285.546 444.772C285.609 444.699 285.654 444.626 285.683 444.551C285.713 444.476 285.726 444.401 285.726 444.324C285.728 444.17 285.679 444.015 285.604 443.854C285.506 443.644 285.411 443.435 285.315 443.224C285.285 443.158 285.255 443.092 285.223 443.025C285.208 442.987 285.186 442.942 285.171 442.905C284.259 440.957 283.363 439.007 282.452 437.066C282.004 436.117 281.303 435.401 280.346 434.953C279.495 434.557 278.629 434.169 277.77 433.766V433.684C277.464 433.541 277.164 433.4 276.859 433.258C276.173 432.93 275.694 432.422 275.694 431.615V431.585C275.762 430.241 276.03 428.927 276.636 427.702C276.986 426.986 277.337 426.245 277.8 425.604C277.815 425.582 277.83 425.559 277.845 425.537C279.197 423.714 280.817 422.392 282.692 421.624C284.149 421.018 285.754 420.735 287.509 420.802C289.076 420.87 290.511 421.183 291.795 421.729C293.147 422.312 294.341 423.163 295.365 424.275C296.029 425.006 296.627 425.842 297.15 426.791C297.771 427.933 298.181 429.122 298.397 430.331C298.427 430.511 298.449 430.682 298.472 430.862C298.502 431.092 298.524 431.325 298.539 431.563C298.562 431.936 298.569 432.309 298.547 432.682C298.539 432.847 298.532 433.003 298.517 433.168C298.502 433.318 298.487 433.466 298.472 433.624C298.457 433.766 298.434 433.907 298.412 434.049C298.412 434.049 298.412 434.049 298.412 434.051C298.054 436.119 297.12 438.112 295.65 439.798V439.91L295.643 439.918C294.979 440.679 294.223 441.352 293.372 441.881C292.751 442.269 292.073 442.567 291.409 442.867C291.379 442.882 291.349 442.89 291.319 442.905C291.27 442.924 291.223 442.944 291.176 442.965C291.129 442.985 291.083 443.006 291.034 443.025C290.818 443.109 290.601 443.186 290.383 443.257C290.214 443.312 290.046 443.364 289.877 443.405C289.393 443.531 288.938 443.454 288.557 443.186C288.486 443.135 288.411 443.09 288.345 443.025C288.326 443.002 288.311 442.985 288.293 442.965C288.274 442.944 288.255 442.924 288.24 442.905C288.225 442.897 288.218 442.882 288.21 442.875C287.634 442.159 287.091 441.41 286.553 440.657C285.969 439.858 285.366 439.082 284.529 438.529C284.357 438.409 284.164 438.311 283.984 438.2C284.289 439.029 284.64 439.805 285 440.567C285.366 441.358 285.724 442.127 286.082 442.903C286.097 442.94 286.119 442.985 286.134 443.023C286.164 443.089 286.194 443.154 286.224 443.222C286.284 443.355 286.344 443.49 286.404 443.619C286.566 443.972 286.601 444.334 286.532 444.662C286.523 444.703 286.509 444.744 286.498 444.784C286.455 444.92 286.399 445.052 286.316 445.172C286.219 445.314 286.093 445.442 285.941 445.547C285.848 445.61 285.752 445.663 285.656 445.706C285.368 445.835 285.071 445.875 284.784 445.824C284.402 445.759 284.04 445.534 283.746 445.157C283.185 444.425 282.626 443.707 282.073 442.976C282.036 442.931 282.006 442.886 281.968 442.841C281.438 442.162 280.909 441.474 280.393 440.78C279.788 439.974 279.109 439.301 278.093 439.04C278.003 439.018 277.913 438.988 277.824 438.973V438.965C277.817 438.935 277.809 438.898 277.809 438.86C274.577 438.047 271.298 437.726 267.968 438.047C267.579 438.084 267.259 438.264 267.049 438.555V438.66C266.921 438.81 266.839 438.995 266.788 439.198C266.676 439.699 266.826 440.169 267.139 440.49C267.146 440.497 267.146 440.497 267.154 440.505C267.219 440.57 267.291 440.629 267.369 440.679C267.606 440.831 267.896 440.914 268.221 440.908C268.624 440.9 269.027 440.882 269.43 440.861C269.833 440.84 270.236 440.816 270.639 440.797C270.908 440.782 271.17 440.775 271.438 440.76C271.706 440.752 271.871 440.872 271.894 441.14C271.924 441.386 271.751 441.551 271.483 441.589C271.408 441.596 271.341 441.596 271.268 441.604C270.971 441.619 270.677 441.635 270.381 441.649C269.758 441.679 269.134 441.705 268.511 441.744C268.393 441.754 268.281 441.778 268.176 441.815C267.966 441.89 267.782 442.02 267.645 442.181C267.576 442.262 267.518 442.352 267.473 442.445V442.453C267.458 442.468 267.458 442.475 267.45 442.49C267.375 442.648 267.338 442.826 267.345 443.014C267.368 443.432 267.561 443.767 267.868 443.977C267.891 443.992 267.906 444.007 267.928 444.015C268.123 444.142 268.361 444.217 268.622 444.217C268.764 444.217 268.905 444.202 269.055 444.202C270.026 444.15 270.996 444.097 271.967 444.052C272.139 444.041 272.273 444.071 272.366 444.137C272.46 444.202 272.513 444.305 272.52 444.44C272.528 444.694 272.348 444.851 272.004 444.881C271.952 444.881 271.899 444.881 271.847 444.889C270.981 444.934 270.107 444.971 269.241 445.016C269.087 445.027 268.944 445.059 268.813 445.108C268.682 445.157 268.568 445.224 268.47 445.307C268.448 445.314 268.433 445.329 268.418 445.344C268.179 445.547 268.044 445.852 268.052 446.21C268.067 446.852 268.598 447.33 269.306 447.337C269.426 447.337 269.552 447.345 269.672 447.345H269.792C270.636 447.367 271.464 447.39 272.308 447.42C272.565 447.427 272.805 447.478 273.024 447.574C273.244 447.669 273.444 447.808 273.623 447.995C273.683 448.055 273.743 448.108 273.81 448.16C273.863 448.13 273.908 448.1 273.945 448.07C274.298 447.785 274.659 447.607 275.021 447.54C275.141 447.517 275.263 447.506 275.383 447.508C275.745 447.514 276.105 447.628 276.458 447.853C276.574 447.928 276.69 448.016 276.806 448.115C276.947 448.234 277.028 448.213 277.116 448.144C277.146 448.121 277.176 448.093 277.209 448.063C277.418 447.87 277.648 447.729 277.894 447.637C278.016 447.592 278.141 447.559 278.267 447.538C278.773 447.455 279.298 447.574 279.737 447.887C279.846 447.965 279.951 448.055 280.048 448.159C280.116 448.226 280.17 448.267 280.226 448.273C280.283 448.279 280.343 448.252 280.421 448.181C280.673 447.958 280.941 447.797 281.218 447.705C281.312 447.673 281.406 447.65 281.501 447.634C281.597 447.617 281.693 447.609 281.792 447.607C281.889 447.607 281.989 447.613 282.088 447.628C282.289 447.656 282.491 447.716 282.699 447.808C283.294 448.076 283.669 448.505 283.832 449.074C283.886 449.263 283.916 449.469 283.924 449.689C283.946 450.302 283.961 450.92 283.961 451.534C283.954 451.794 284.044 451.884 284.297 451.922C284.663 451.967 295.423 452.034 295.423 452.034C294.878 454.102 293.145 455.134 290.218 455.134H286.185C282.623 455.134 280.845 456.641 280.845 459.658V459.74C280.845 462.757 282.623 464.265 286.185 464.265H290.261C300.939 464.265 306.285 459.598 306.285 450.257V437.07C306.465 436.346 306.598 435.605 306.688 434.852C306.994 432.253 306.861 429.774 306.285 427.436Z" fill="#235C95"/>
<path d="M281.524 454.02C282.002 454.185 282.51 454.035 282.913 453.654C282.996 453.409 283.136 453.161 283.136 452.908C283.136 452.617 283.136 452.325 283.129 452.034C283.129 452.03 283.129 452.025 283.129 452.021C283.129 451.204 283.114 450.379 283.069 449.555C283.06 449.389 283.016 449.235 282.945 449.1C282.91 449.032 282.868 448.969 282.82 448.909C282.739 448.809 282.638 448.727 282.529 448.657C282.313 448.52 282.053 448.442 281.779 448.451C281.138 448.481 280.6 448.982 280.6 449.638C280.592 450.397 280.607 451.164 280.63 451.924C280.63 451.933 280.63 451.942 280.63 451.954C280.637 452.282 280.652 452.602 280.667 452.932C280.69 453.47 281.01 453.844 281.526 454.022L281.524 454.02Z" fill="#235C95"/>
<path d="M273.302 449.278C273.298 449.152 273.264 449.042 273.227 448.933C273.082 448.517 272.719 448.247 272.255 448.247C272.212 448.247 272.173 448.26 272.132 448.265C271.779 448.312 271.468 448.522 271.322 448.843C271.254 448.978 271.217 449.126 271.217 449.291C271.209 450.09 271.224 450.896 271.262 451.695C271.284 452.135 271.53 452.464 271.97 452.606C272.396 452.756 272.769 452.644 273.18 452.218C273.217 452.083 273.345 451.83 273.345 451.584C273.352 451.099 273.345 450.62 273.337 450.135C273.322 449.852 273.307 449.559 273.3 449.276L273.302 449.278Z" fill="#235C95"/>
<path d="M269.592 448.189C268.913 448.271 268.53 449.107 268.868 449.704C269.099 450.122 269.809 450.435 270.272 450.309C270.332 450.287 270.392 450.174 270.392 450.101C270.385 449.51 270.317 448.899 270.66 448.286C270.675 448.249 270.698 448.219 270.72 448.181H270.555C270.182 448.174 269.884 448.151 269.592 448.189Z" fill="#235C95"/>
<path d="M139.534 463.952C139.534 463.13 139.519 462.302 139.474 461.473C139.469 461.366 139.444 461.267 139.41 461.173C139.324 460.922 139.154 460.715 138.932 460.575C138.876 460.539 138.816 460.507 138.754 460.481C138.651 460.436 138.542 460.4 138.428 460.384C138.347 460.372 138.267 460.367 138.182 460.37C137.541 460.4 137.003 460.901 137.003 461.557C136.995 462.326 137.01 463.102 137.033 463.873V463.895C137.04 464.216 137.055 464.529 137.07 464.852C137.093 465.39 137.414 465.763 137.929 465.941C138.407 466.106 138.915 465.956 139.319 465.575C139.401 465.33 139.542 465.082 139.542 464.829C139.542 464.561 139.542 464.299 139.534 464.03V463.955V463.952Z" fill="#235C95"/>
<path d="M133.024 463.19C133.017 462.622 133.002 462.049 132.979 461.488C132.972 461.214 132.891 460.972 132.76 460.777C132.717 460.712 132.666 460.652 132.612 460.599C132.49 460.479 132.342 460.393 132.175 460.335C132.042 460.29 131.899 460.262 131.745 460.264C131.58 460.267 131.425 460.303 131.282 460.365C131.211 460.397 131.144 460.434 131.08 460.477C130.765 460.697 130.557 461.064 130.557 461.503C130.557 461.764 130.557 462.019 130.564 462.279V462.437C130.572 463.027 130.594 463.624 130.632 464.214C130.647 464.482 130.827 464.752 130.885 464.893C131.408 465.319 131.849 465.416 132.319 465.191C132.782 464.974 133.035 464.585 133.035 464.072C133.035 463.796 133.028 463.519 133.02 463.25V463.19H133.024Z" fill="#235C95"/>
<path d="M135.368 460.337C135.254 460.292 135.14 460.267 135.023 460.262C134.708 460.247 134.399 460.374 134.131 460.59C134.103 460.612 134.073 460.627 134.046 460.65C133.971 460.888 133.836 461.128 133.829 461.366C133.821 462.037 133.829 462.71 133.859 463.389V463.442C133.866 463.695 133.874 463.942 133.889 464.195C133.919 464.831 134.45 465.27 135.061 465.255C135.696 465.247 136.188 464.777 136.195 464.12V463.792C136.195 462.979 136.173 462.157 136.143 461.344C136.12 460.85 135.815 460.507 135.366 460.335L135.368 460.337Z" fill="#235C95"/>
<path d="M129.737 461.846C129.722 461.629 129.715 461.413 129.707 461.195C129.705 461.119 129.677 461.057 129.662 460.985C129.555 460.496 129.171 460.164 128.663 460.164C128.35 460.172 128.057 460.307 127.871 460.537C127.811 460.605 127.766 460.68 127.729 460.76C127.661 460.895 127.624 461.044 127.624 461.209C127.616 462.007 127.631 462.814 127.669 463.612C127.691 464.053 127.937 464.381 128.378 464.524C128.803 464.674 129.176 464.561 129.587 464.135C129.625 464 129.752 463.747 129.752 463.502C129.76 463.016 129.752 462.538 129.745 462.052C129.745 461.985 129.737 461.91 129.737 461.842V461.846Z" fill="#235C95"/>
<path d="M125.995 460.106C125.316 460.188 124.934 461.025 125.271 461.621C125.502 462.039 126.212 462.352 126.676 462.227C126.736 462.204 126.796 462.092 126.796 462.017C126.788 461.426 126.721 460.815 127.064 460.202C127.079 460.164 127.101 460.134 127.124 460.097H126.959C126.586 460.089 126.287 460.067 125.995 460.104V460.106Z" fill="#235C95"/>
<path d="M110.51 523.647C108.624 522.964 106.957 522.003 105.51 520.763C104.06 519.526 102.937 518.106 102.137 516.505C101.336 514.906 100.937 513.203 100.937 511.396V491.193C100.937 490.032 101.435 489.025 102.431 488.174C103.397 487.349 104.587 486.936 106.007 486.936C107.334 486.936 108.482 487.349 109.447 488.174C110.443 489.025 110.942 490.032 110.942 491.193L111.122 511.163C111.122 511.293 111.092 511.538 111.032 511.898C111.273 513.059 111.915 514.015 112.955 514.763C113.996 515.511 115.241 515.886 116.69 515.886C117.384 515.886 118.063 515.764 118.727 515.519C119.39 515.273 119.979 514.945 120.493 514.533C121.005 514.12 121.413 513.631 121.715 513.061C122.017 512.494 122.182 511.913 122.214 511.319L122.304 510.816V491.234C122.304 490.021 122.786 489.003 123.752 488.176C124.717 487.351 125.908 486.938 127.327 486.938C127.991 486.938 128.623 487.049 129.228 487.266C129.832 487.486 130.359 487.789 130.813 488.176C131.778 489.003 132.26 490.021 132.26 491.234V511.011C132.26 511.27 132.245 511.424 132.215 511.474C132.335 512.714 132.939 513.745 134.027 514.57C135.082 515.397 136.32 515.809 137.739 515.809C139.158 515.809 140.546 515.371 141.722 514.493C142.837 513.694 143.471 512.648 143.623 511.358V491.194C143.623 490.008 144.105 489.003 145.07 488.176C146.036 487.351 147.227 486.938 148.646 486.938C149.31 486.938 149.943 487.049 150.547 487.266C151.151 487.486 151.68 487.789 152.132 488.176C153.127 489.027 153.626 490.034 153.626 491.194V511.398C153.626 513.179 153.21 514.868 152.381 516.468C151.55 518.069 150.382 519.499 148.873 520.763C147.393 522.001 145.682 522.964 143.735 523.647C141.789 524.331 139.76 524.673 137.647 524.673C135.534 524.673 133.715 524.363 131.921 523.744C130.125 523.126 128.518 522.248 127.1 521.112C125.621 522.248 123.977 523.124 122.167 523.744C120.356 524.363 118.47 524.673 116.508 524.673C114.395 524.673 112.397 524.331 110.51 523.647Z" fill="#235C95"/>
<path d="M162.187 481.675C161.101 480.747 160.558 479.637 160.558 478.347C160.558 477.726 160.7 477.128 160.987 476.547C161.274 475.966 161.673 475.457 162.187 475.017C163.243 474.115 164.54 473.663 166.079 473.663C166.833 473.663 167.544 473.777 168.208 474.012C168.871 474.244 169.458 474.58 169.972 475.019C170.484 475.457 170.885 475.967 171.172 476.549C171.459 477.13 171.601 477.728 171.601 478.349C171.601 479.639 171.058 480.749 169.972 481.677C169.458 482.116 168.864 482.457 168.183 482.702C167.504 482.948 166.803 483.07 166.079 483.07C164.57 483.07 163.273 482.607 162.187 481.677V481.675ZM162.504 523.358C161.476 522.533 160.964 521.526 160.964 520.339V491.196C160.964 490.628 161.099 490.081 161.371 489.552C161.643 489.023 162.02 488.566 162.504 488.177C162.956 487.791 163.499 487.482 164.133 487.249C164.767 487.017 165.431 486.901 166.124 486.901C167.482 486.901 168.659 487.326 169.655 488.177C170.077 488.566 170.416 489.023 170.673 489.552C170.93 490.081 171.058 490.63 171.058 491.196V520.339C171.058 521.526 170.576 522.533 169.61 523.358C168.644 524.185 167.467 524.596 166.079 524.596C164.692 524.596 163.469 524.183 162.504 523.358Z" fill="#235C95"/>
<path d="M180.35 523.007C179.354 522.209 178.855 521.215 178.855 520.028V477.726C178.855 476.539 179.367 475.534 180.395 474.707C181.39 473.909 182.568 473.507 183.925 473.507C185.283 473.507 186.46 473.909 187.456 474.707C188.422 475.534 188.905 476.539 188.905 477.726L188.86 500.02L203.345 488.603C204.25 487.855 205.336 487.48 206.604 487.48C207.237 487.48 207.879 487.596 208.527 487.829C209.176 488.061 209.742 488.371 210.224 488.757C210.706 489.145 211.09 489.608 211.379 490.15C211.664 490.692 211.809 491.234 211.809 491.776C211.809 492.317 211.674 492.891 211.402 493.42C211.13 493.949 210.738 494.421 210.224 494.832L197.504 504.856L212.757 516.97C213.663 517.692 214.115 518.609 214.115 519.719C214.115 520.829 213.616 521.911 212.62 522.814C211.625 523.716 210.477 524.168 209.18 524.168C207.67 524.116 206.433 523.679 205.467 522.852L188.857 509.654V520.026C188.857 521.239 188.373 522.231 187.407 523.006C186.955 523.394 186.427 523.697 185.823 523.915C185.219 524.134 184.585 524.243 183.922 524.243C182.502 524.243 181.312 523.831 180.346 523.004L180.35 523.007Z" fill="#235C95"/>
<path d="M276.119 523.337C274.263 522.732 272.656 521.86 271.299 520.726C269.881 519.563 268.779 518.204 267.995 516.642C267.209 515.082 266.817 513.372 266.817 511.514V477.842C266.817 476.629 267.284 475.598 268.22 474.747C269.126 473.922 270.271 473.507 271.661 473.507C273.05 473.507 274.301 473.922 275.326 474.747C276.352 475.624 276.866 476.656 276.866 477.842V511.514C276.866 512.882 277.302 513.932 278.178 514.667C279.054 515.402 280.289 515.783 281.891 515.809H282.117C283.535 515.809 284.727 516.224 285.693 517.049C286.629 517.847 287.096 518.854 287.096 520.067C287.096 521.281 286.627 522.312 285.693 523.086C284.757 523.861 283.565 524.247 282.117 524.247C279.974 524.247 277.976 523.945 276.121 523.337H276.119Z" fill="#235C95"/>
<path d="M217.192 503.969V505.551C217.215 506.157 217.26 506.776 217.335 507.396C217.425 508.15 217.558 508.891 217.738 509.614C218.201 511.527 218.955 513.34 219.994 515.05C221.494 517.529 223.429 519.612 225.817 521.234C228.699 523.189 231.784 524.288 235.054 524.579C235.539 524.624 236.032 524.654 236.526 524.654C236.728 524.661 236.921 524.661 237.124 524.654C237.624 524.654 238.125 524.624 238.631 524.579C238.997 524.556 239.362 524.511 239.728 524.466C239.981 524.429 240.071 524.339 240.064 524.078C240.064 523.465 240.079 522.846 240.101 522.233C240.131 521.352 240.534 520.711 241.326 520.351C242.154 519.985 242.931 520.127 243.604 520.724C243.761 520.866 243.842 520.836 243.977 520.701C244.753 519.88 245.985 519.835 246.814 520.604C246.949 520.724 247.029 520.814 247.217 520.656C248.135 519.857 249.137 519.85 250.076 520.611C250.114 520.641 250.159 520.671 250.211 520.701C250.279 520.649 250.339 520.596 250.399 520.536C250.757 520.163 251.197 519.976 251.713 519.961C252.407 519.931 253.08 519.916 253.774 519.901H253.781C253.856 519.901 253.939 519.893 254.012 519.893C254.085 519.893 254.154 519.886 254.227 519.886H254.347C254.467 519.886 254.593 519.878 254.713 519.878C255.422 519.871 255.952 519.392 255.967 518.751C255.975 518.393 255.84 518.087 255.602 517.885C255.587 517.87 255.572 517.855 255.549 517.847C255.452 517.757 255.326 517.69 255.184 517.645C255.169 517.637 255.146 517.63 255.131 517.622C255.026 517.585 254.908 517.562 254.781 517.555C253.914 517.51 253.04 517.472 252.174 517.427C252.122 517.42 252.069 517.42 252.017 517.42C251.912 517.412 251.822 517.39 251.749 517.352C251.674 517.322 251.614 517.277 251.576 517.225C251.524 517.157 251.501 517.075 251.501 516.979C251.509 516.852 251.554 516.756 251.636 516.689C251.674 516.651 251.726 516.629 251.779 516.614C251.861 516.591 251.951 516.584 252.054 516.591C253.026 516.636 253.995 516.689 254.966 516.741C255.116 516.741 255.257 516.756 255.399 516.756H255.414C255.467 516.756 255.519 516.756 255.572 516.741C255.767 516.719 255.945 516.651 256.095 516.554C256.117 516.546 256.132 516.531 256.155 516.516C256.461 516.306 256.656 515.971 256.678 515.552C256.686 515.365 256.648 515.187 256.573 515.029C256.566 515.014 256.566 515.007 256.551 514.992V514.984C256.468 514.812 256.342 514.656 256.185 514.544C256.102 514.476 256.005 514.416 255.902 514.379C255.782 514.326 255.656 514.289 255.514 514.281C254.595 514.221 253.676 514.184 252.757 514.139C252.682 514.131 252.615 514.131 252.542 514.124C252.422 514.109 252.319 514.064 252.244 513.989C252.161 513.914 252.116 513.809 252.131 513.676C252.139 513.548 252.184 513.452 252.259 513.385C252.296 513.355 252.341 513.332 252.386 513.317C252.446 513.295 252.514 513.287 252.589 513.295C252.857 513.31 253.119 513.317 253.387 513.332C254.194 513.37 255 513.43 255.806 513.445C255.874 513.445 255.941 513.445 256.001 513.43C256.099 513.422 256.189 513.407 256.269 513.377C256.507 513.317 256.717 513.197 256.875 513.042L256.89 513.027C257.203 512.706 257.353 512.236 257.241 511.735C257.188 511.532 257.105 511.347 256.98 511.197C256.86 511.032 256.704 510.906 256.524 510.816C256.382 510.749 256.234 510.704 256.061 510.689H256.054C252.724 510.368 249.452 510.689 246.219 511.502H246.204V511.51C246.114 511.525 246.024 511.555 245.936 511.577C245.891 511.585 245.854 511.6 245.816 511.615C245.659 511.66 245.511 511.712 245.376 511.787C244.652 512.108 244.121 512.669 243.636 513.317C243.127 514.004 242.604 514.684 242.083 515.356L242.076 515.363C242.076 515.363 242.068 515.371 242.06 515.378C242.023 515.423 241.993 515.468 241.955 515.513C241.74 515.804 241.522 516.089 241.299 516.372C240.964 516.812 240.621 517.253 240.283 517.694C240.238 517.754 240.193 517.806 240.14 517.851C239.565 518.464 238.774 518.552 238.087 518.082C238.035 518.044 237.982 517.999 237.937 517.962C237.892 517.924 237.855 517.887 237.817 517.842C237.497 517.469 237.377 516.961 237.519 516.445C237.534 516.392 237.549 516.347 237.564 516.302C237.579 516.257 237.594 516.205 237.624 516.152C237.714 515.957 237.804 515.749 237.892 515.554C237.9 515.532 237.915 515.502 237.922 515.479V515.472C237.93 515.457 237.937 515.449 237.945 515.434C238.303 514.658 238.661 513.889 239.027 513.096C239.385 512.335 239.736 511.559 240.043 510.73C239.863 510.842 239.67 510.94 239.497 511.058C238.661 511.611 238.056 512.387 237.474 513.186C236.936 513.94 236.392 514.686 235.817 515.404C235.809 515.412 235.802 515.427 235.787 515.434C235.772 515.449 235.764 515.457 235.757 515.472L235.749 515.479C235.727 515.502 235.712 515.517 235.682 515.547V515.554C235.532 515.704 235.369 515.815 235.189 515.882C235.054 515.942 234.913 515.98 234.763 515.98C234.568 516.01 234.36 515.987 234.15 515.935C233.762 515.837 233.374 515.704 232.993 515.554C232.933 515.532 232.873 515.502 232.813 515.479C232.806 515.479 232.806 515.472 232.798 515.472C232.768 515.457 232.738 515.449 232.708 515.434C232.678 515.419 232.648 515.412 232.618 515.397C231.954 515.099 231.274 514.799 230.655 514.411C229.804 513.88 229.05 513.209 228.384 512.447L228.377 512.44C228.197 512.23 228.026 512.022 227.869 511.804C227.696 511.589 227.548 511.364 227.398 511.141C226.464 509.729 225.861 508.169 225.613 506.579C225.591 506.436 225.568 506.296 225.553 506.153C225.538 505.996 225.523 505.847 225.508 505.697C225.493 505.532 225.485 505.377 225.478 505.212C225.455 504.839 225.463 504.466 225.486 504.092C225.501 503.854 225.523 503.622 225.553 503.391C225.576 503.211 225.598 503.041 225.628 502.861C225.844 501.651 226.256 500.464 226.875 499.321C226.882 499.313 226.882 499.306 226.89 499.298V499.291C227.047 499 227.218 498.722 227.398 498.454C227.779 497.856 228.204 497.305 228.66 496.804C229.243 496.176 229.877 495.625 230.565 495.169C231.088 494.811 231.647 494.513 232.23 494.258C233.514 493.712 234.949 493.399 236.516 493.332C238.271 493.264 239.876 493.549 241.333 494.153C243.208 494.922 244.828 496.244 246.18 498.066C246.195 498.089 246.21 498.111 246.225 498.134C246.688 498.777 247.039 499.516 247.389 500.232C247.995 501.456 248.263 502.771 248.33 504.115V504.145C248.338 504.25 248.331 504.347 248.316 504.443V504.451C248.286 504.704 248.203 504.929 248.085 505.122C248.002 505.249 247.905 505.36 247.787 505.465C247.697 505.547 247.599 505.622 247.496 505.682C247.391 505.757 247.288 505.817 247.168 505.87C246.862 506.012 246.562 506.153 246.257 506.296C246.122 506.356 245.981 506.423 245.846 506.491C245.689 506.558 245.533 506.633 245.376 506.708C244.807 506.969 244.241 507.224 243.681 507.484C242.724 507.932 242.023 508.649 241.575 509.597C240.664 511.538 239.767 513.488 238.856 515.436C238.841 515.474 238.819 515.519 238.804 515.556C238.676 515.839 238.551 516.109 238.423 516.385C238.416 516.407 238.408 516.422 238.393 516.445C238.325 516.602 238.288 516.751 238.303 516.893C238.311 517.036 238.371 517.161 238.483 517.296V517.304C238.693 517.534 238.954 517.594 239.237 517.484C239.282 517.461 239.334 517.439 239.379 517.409C239.454 517.364 239.522 517.296 239.574 517.229C239.777 516.968 239.977 516.706 240.18 516.445C240.411 516.154 240.635 515.854 240.866 515.556C240.896 515.519 240.926 515.474 240.956 515.436C241.71 514.457 242.464 513.481 243.212 512.502C243.787 511.733 244.496 511.187 245.377 510.874C245.497 510.837 245.623 510.792 245.751 510.762C245.923 510.717 246.086 510.672 246.259 510.642C246.311 510.627 246.356 510.619 246.409 510.612C246.446 510.597 246.484 510.589 246.521 510.582C246.574 510.567 246.626 510.552 246.679 510.544C246.679 510.544 246.684 510.542 246.694 510.537C249.673 509.828 252.69 509.573 255.759 509.821C255.834 509.828 255.894 509.828 255.939 509.806C255.977 509.798 255.999 509.776 256.022 509.753C256.037 509.738 256.052 509.723 256.059 509.708C256.067 509.701 256.067 509.693 256.074 509.686V509.678C256.104 509.641 256.119 509.581 256.134 509.513C256.187 509.297 256.232 509.08 256.277 508.857V508.849C256.382 508.349 256.464 507.856 256.53 507.355V507.347C256.575 506.989 256.612 506.646 256.642 506.286C256.672 505.943 256.695 505.592 256.702 505.247C256.717 504.777 256.71 504.306 256.687 503.843C256.672 503.545 256.657 503.245 256.627 502.954C256.605 502.679 256.567 502.401 256.53 502.133C256.485 501.812 256.44 501.49 256.38 501.177C256.32 500.879 256.26 500.586 256.192 500.288C256.155 500.116 256.11 499.945 256.057 499.772C255.877 499.071 255.647 498.368 255.379 497.674C254.707 495.904 253.826 494.277 252.727 492.812C252.607 492.647 252.482 492.492 252.354 492.334C252.094 492.014 251.831 491.706 251.556 491.408C251.413 491.258 251.272 491.117 251.13 490.967C250.912 490.744 250.689 490.534 250.466 490.326C250.236 490.116 249.996 489.908 249.757 489.713C249.034 489.115 248.293 488.579 247.547 488.086C246.8 487.607 246.039 487.174 245.269 486.801C244.843 486.599 244.417 486.413 243.992 486.248C243.894 486.203 243.804 486.166 243.709 486.128C243.441 486.023 243.171 485.926 242.902 485.837C242.634 485.755 242.357 485.665 242.081 485.592C241.536 485.442 240.992 485.324 240.431 485.219C240.334 485.204 240.236 485.189 240.14 485.174C239.865 485.121 239.595 485.091 239.319 485.061C239.304 485.054 239.289 485.054 239.274 485.054C238.931 485.009 238.588 484.986 238.236 484.964C237.892 484.941 237.542 484.934 237.189 484.934C236.436 484.934 235.682 484.979 234.904 485.069C234.881 485.069 234.851 485.076 234.829 485.076C233.469 485.241 232.08 485.547 230.662 485.987C229.864 486.233 229.087 486.533 228.347 486.891C228.339 486.891 228.339 486.899 228.332 486.899C228.174 486.966 228.019 487.041 227.869 487.129C227.689 487.212 227.511 487.302 227.338 487.397C225.405 488.459 223.687 489.861 222.193 491.571C219.96 494.132 218.482 496.924 217.742 499.964C217.429 501.248 217.241 502.585 217.196 503.952L217.192 503.969Z" fill="#235C95"/>
<path d="M240.879 525.443C240.879 525.696 241.021 525.944 241.102 526.189C241.505 526.57 242.013 526.72 242.491 526.555C243.007 526.375 243.328 526.002 243.35 525.466C243.365 525.145 243.38 524.83 243.388 524.509V524.487C243.41 523.718 243.425 522.942 243.418 522.171C243.418 521.515 242.88 521.014 242.238 520.984C241.575 520.962 240.984 521.425 240.946 522.089C240.901 522.918 240.886 523.746 240.886 524.568V524.643C240.879 524.911 240.879 525.173 240.879 525.441V525.443Z" fill="#235C95"/>
<path d="M247.382 524.689C247.382 525.205 247.635 525.593 248.098 525.809C248.569 526.032 249.009 525.936 249.532 525.511C249.592 525.368 249.771 525.1 249.786 524.832C249.823 524.241 249.846 523.645 249.853 523.054V522.897C249.861 522.636 249.861 522.381 249.861 522.121C249.861 521.419 249.33 520.896 248.674 520.881C247.987 520.874 247.464 521.374 247.442 522.106C247.419 522.666 247.404 523.24 247.397 523.808V523.868C247.389 524.136 247.382 524.414 247.382 524.689Z" fill="#235C95"/>
<path d="M244.225 524.414V524.742C244.232 525.398 244.725 525.869 245.359 525.876C245.972 525.891 246.501 525.451 246.531 524.815C246.546 524.562 246.553 524.314 246.561 524.061V524.009C246.591 523.33 246.598 522.657 246.591 521.986C246.583 521.747 246.448 521.507 246.373 521.269C245.993 520.926 245.507 520.776 245.051 520.956C244.603 521.129 244.298 521.472 244.275 521.965C244.245 522.779 244.223 523.6 244.223 524.414H244.225Z" fill="#235C95"/>
<path d="M250.669 524.123C250.669 524.369 250.797 524.624 250.834 524.759C251.245 525.184 251.618 525.297 252.043 525.147C252.484 525.004 252.73 524.676 252.752 524.236C252.79 523.437 252.805 522.631 252.797 521.832C252.797 521.667 252.76 521.519 252.692 521.384C252.655 521.301 252.61 521.226 252.55 521.161C252.362 520.93 252.072 520.795 251.758 520.787C251.175 520.787 250.735 521.206 250.712 521.819C250.705 522.034 250.697 522.252 250.682 522.467C250.682 522.535 250.675 522.61 250.675 522.677C250.667 523.163 250.66 523.641 250.667 524.127L250.669 524.123Z" fill="#235C95"/>
<path d="M253.358 520.823C253.701 521.436 253.633 522.048 253.626 522.638C253.626 522.713 253.686 522.826 253.746 522.846C254.209 522.974 254.918 522.659 255.15 522.241C255.486 521.643 255.105 520.806 254.427 520.726C254.136 520.688 253.836 520.711 253.463 520.718H253.298C253.32 520.756 253.343 520.786 253.358 520.823Z" fill="#235C95"/>
<path d="M288.979 503.969V505.551C289.001 506.157 289.046 506.776 289.121 507.396C289.211 508.15 289.344 508.891 289.524 509.614C289.987 511.527 290.741 513.34 291.78 515.05C293.28 517.529 295.215 519.612 297.604 521.234C300.485 523.189 303.57 524.288 306.84 524.579C307.325 524.624 307.819 524.654 308.312 524.654C308.514 524.661 308.707 524.661 308.91 524.654C309.41 524.654 309.911 524.624 310.417 524.579C310.783 524.556 311.149 524.511 311.514 524.466C311.767 524.429 311.857 524.339 311.85 524.078C311.85 523.465 311.865 522.846 311.887 522.233C311.917 521.352 312.32 520.711 313.112 520.351C313.94 519.985 314.717 520.127 315.39 520.724C315.547 520.866 315.628 520.836 315.763 520.701C316.539 519.88 317.771 519.835 318.6 520.604C318.735 520.724 318.815 520.814 319.003 520.656C319.922 519.857 320.923 519.85 321.862 520.611C321.9 520.641 321.945 520.671 321.997 520.701C322.065 520.649 322.125 520.596 322.185 520.536C322.543 520.163 322.984 519.976 323.499 519.961C324.193 519.931 324.866 519.916 325.56 519.901H325.567C325.642 519.901 325.725 519.893 325.798 519.893C325.871 519.893 325.94 519.886 326.014 519.886H326.134C326.254 519.886 326.379 519.878 326.499 519.878C327.208 519.871 327.739 519.392 327.754 518.751C327.761 518.393 327.626 518.087 327.388 517.885C327.373 517.87 327.358 517.855 327.335 517.847C327.238 517.757 327.112 517.69 326.97 517.645C326.955 517.637 326.932 517.63 326.917 517.622C326.812 517.585 326.694 517.562 326.567 517.555C325.7 517.51 324.827 517.472 323.96 517.427C323.908 517.42 323.855 517.42 323.803 517.42C323.698 517.412 323.608 517.39 323.535 517.352C323.46 517.322 323.4 517.277 323.362 517.225C323.31 517.157 323.287 517.075 323.287 516.979C323.295 516.852 323.34 516.756 323.422 516.689C323.46 516.651 323.512 516.629 323.565 516.614C323.647 516.591 323.737 516.584 323.84 516.591C324.812 516.636 325.781 516.689 326.752 516.741C326.902 516.741 327.043 516.756 327.185 516.756H327.2C327.253 516.756 327.305 516.756 327.358 516.741C327.553 516.719 327.731 516.651 327.881 516.554C327.904 516.546 327.919 516.531 327.941 516.516C328.247 516.306 328.442 515.971 328.464 515.552C328.472 515.365 328.434 515.187 328.359 515.029C328.352 515.014 328.352 515.007 328.337 514.992V514.984C328.254 514.812 328.129 514.656 327.971 514.544C327.889 514.476 327.791 514.416 327.688 514.379C327.568 514.326 327.442 514.289 327.3 514.281C326.381 514.221 325.462 514.184 324.544 514.139C324.469 514.131 324.401 514.131 324.328 514.124C324.208 514.109 324.105 514.064 324.03 513.989C323.947 513.914 323.902 513.809 323.917 513.676C323.925 513.548 323.97 513.452 324.045 513.385C324.082 513.355 324.127 513.332 324.172 513.317C324.232 513.295 324.3 513.287 324.375 513.295C324.643 513.31 324.905 513.317 325.174 513.332C325.98 513.37 326.786 513.43 327.592 513.445C327.66 513.445 327.727 513.445 327.787 513.43C327.885 513.422 327.975 513.407 328.055 513.377C328.294 513.317 328.504 513.197 328.661 513.042L328.676 513.027C328.989 512.706 329.139 512.236 329.027 511.735C328.974 511.532 328.892 511.347 328.766 511.197C328.646 511.032 328.49 510.906 328.31 510.816C328.168 510.749 328.02 510.704 327.847 510.689H327.84C324.51 510.368 321.238 510.689 318.005 511.502H317.99V511.51C317.9 511.525 317.81 511.555 317.722 511.577C317.677 511.585 317.64 511.6 317.602 511.615C317.445 511.66 317.297 511.712 317.162 511.787C316.438 512.108 315.907 512.669 315.422 513.317C314.914 514.004 314.39 514.684 313.869 515.356L313.862 515.363C313.862 515.363 313.854 515.371 313.847 515.378C313.809 515.423 313.779 515.468 313.742 515.513C313.526 515.804 313.309 516.089 313.085 516.372C312.75 516.812 312.407 517.253 312.069 517.694C312.024 517.754 311.979 517.806 311.927 517.851C311.351 518.464 310.56 518.552 309.874 518.082C309.821 518.044 309.769 517.999 309.724 517.962C309.679 517.924 309.641 517.887 309.604 517.842C309.283 517.469 309.163 516.961 309.305 516.445C309.32 516.392 309.335 516.347 309.35 516.302C309.365 516.257 309.38 516.205 309.41 516.152C309.5 515.957 309.59 515.749 309.679 515.554C309.686 515.532 309.701 515.502 309.709 515.479V515.472C309.716 515.457 309.724 515.449 309.731 515.434C310.089 514.658 310.447 513.889 310.813 513.096C311.171 512.335 311.522 511.559 311.829 510.73C311.649 510.842 311.456 510.94 311.284 511.058C310.447 511.611 309.842 512.387 309.26 513.186C308.722 513.94 308.179 514.686 307.603 515.404C307.595 515.412 307.588 515.427 307.573 515.434C307.558 515.449 307.55 515.457 307.543 515.472L307.535 515.479C307.513 515.502 307.498 515.517 307.468 515.547V515.554C307.318 515.704 307.155 515.815 306.975 515.882C306.84 515.942 306.699 515.98 306.549 515.98C306.354 516.01 306.146 515.987 305.936 515.935C305.548 515.837 305.16 515.704 304.779 515.554C304.719 515.532 304.659 515.502 304.599 515.479C304.592 515.479 304.592 515.472 304.584 515.472C304.554 515.457 304.524 515.449 304.494 515.434C304.464 515.419 304.434 515.412 304.404 515.397C303.74 515.099 303.06 514.799 302.441 514.411C301.59 513.88 300.836 513.209 300.17 512.447L300.163 512.44C299.983 512.23 299.812 512.022 299.655 511.804C299.482 511.589 299.334 511.364 299.184 511.141C298.25 509.729 297.647 508.169 297.399 506.579C297.377 506.436 297.354 506.296 297.339 506.153C297.324 505.996 297.309 505.847 297.294 505.697C297.279 505.532 297.272 505.377 297.264 505.212C297.242 504.839 297.249 504.466 297.272 504.092C297.287 503.854 297.309 503.622 297.339 503.391C297.362 503.211 297.384 503.041 297.414 502.861C297.63 501.651 298.042 500.464 298.661 499.321C298.669 499.313 298.669 499.306 298.676 499.298V499.291C298.834 499 299.004 498.722 299.184 498.454C299.565 497.856 299.99 497.305 300.446 496.804C301.029 496.176 301.663 495.625 302.351 495.169C302.874 494.811 303.433 494.513 304.016 494.258C305.3 493.712 306.735 493.399 308.302 493.332C310.057 493.264 311.662 493.549 313.119 494.153C314.994 494.922 316.614 496.244 317.966 498.066C317.981 498.089 317.996 498.111 318.011 498.134C318.474 498.777 318.825 499.516 319.175 500.232C319.781 501.456 320.049 502.771 320.117 504.115V504.145C320.124 504.25 320.117 504.347 320.102 504.443V504.451C320.072 504.704 319.989 504.929 319.871 505.122C319.789 505.249 319.691 505.36 319.573 505.465C319.483 505.547 319.385 505.622 319.282 505.682C319.177 505.757 319.074 505.817 318.954 505.87C318.649 506.012 318.349 506.153 318.043 506.296C317.908 506.356 317.767 506.423 317.632 506.491C317.475 506.558 317.319 506.633 317.162 506.708C316.594 506.969 316.027 507.224 315.467 507.484C314.51 507.932 313.809 508.649 313.361 509.597C312.45 511.538 311.554 513.488 310.642 515.436C310.627 515.474 310.605 515.519 310.59 515.556C310.462 515.839 310.337 516.109 310.209 516.385C310.202 516.407 310.194 516.422 310.179 516.445C310.112 516.602 310.074 516.751 310.089 516.893C310.097 517.036 310.157 517.161 310.269 517.296V517.304C310.479 517.534 310.74 517.594 311.023 517.484C311.068 517.461 311.12 517.439 311.165 517.409C311.24 517.364 311.308 517.296 311.36 517.229C311.563 516.968 311.764 516.706 311.966 516.445C312.197 516.154 312.422 515.854 312.652 515.556C312.682 515.519 312.712 515.474 312.742 515.436C313.496 514.457 314.25 513.481 314.998 512.502C315.574 511.733 316.282 511.187 317.164 510.874C317.284 510.837 317.409 510.792 317.537 510.762C317.709 510.717 317.872 510.672 318.045 510.642C318.097 510.627 318.142 510.619 318.195 510.612C318.232 510.597 318.27 510.589 318.307 510.582C318.36 510.567 318.412 510.552 318.465 510.544C318.465 510.544 318.47 510.542 318.48 510.537C321.459 509.828 324.476 509.573 327.545 509.821C327.62 509.828 327.68 509.828 327.725 509.806C327.763 509.798 327.785 509.776 327.808 509.753C327.823 509.738 327.838 509.723 327.845 509.708C327.853 509.701 327.853 509.693 327.86 509.686V509.678C327.89 509.641 327.905 509.581 327.92 509.513C327.973 509.297 328.018 509.08 328.063 508.857V508.849C328.168 508.349 328.25 507.856 328.316 507.355V507.347C328.361 506.989 328.399 506.646 328.429 506.286C328.459 505.943 328.481 505.592 328.489 505.247C328.504 504.777 328.496 504.306 328.474 503.843C328.459 503.545 328.444 503.245 328.414 502.954C328.391 502.679 328.354 502.401 328.316 502.133C328.271 501.812 328.226 501.49 328.166 501.177C328.106 500.879 328.046 500.586 327.979 500.288C327.941 500.116 327.896 499.945 327.844 499.772C327.664 499.071 327.433 498.368 327.165 497.674C326.494 495.904 325.612 494.277 324.514 492.812C324.394 492.647 324.268 492.492 324.14 492.334C323.88 492.014 323.617 491.706 323.342 491.408C323.199 491.258 323.059 491.117 322.916 490.967C322.699 490.744 322.475 490.534 322.252 490.326C322.022 490.116 321.782 489.908 321.544 489.713C320.82 489.115 320.079 488.579 319.333 488.086C318.587 487.607 317.825 487.174 317.055 486.801C316.629 486.599 316.204 486.413 315.778 486.248C315.68 486.203 315.59 486.166 315.495 486.128C315.227 486.023 314.957 485.926 314.689 485.837C314.42 485.755 314.143 485.665 313.867 485.592C313.322 485.442 312.778 485.324 312.217 485.219C312.12 485.204 312.022 485.189 311.927 485.174C311.651 485.121 311.381 485.091 311.105 485.061C311.09 485.054 311.075 485.054 311.06 485.054C310.717 485.009 310.374 484.986 310.022 484.964C309.679 484.941 309.328 484.934 308.975 484.934C308.222 484.934 307.468 484.979 306.69 485.069C306.667 485.069 306.637 485.076 306.615 485.076C305.255 485.241 303.866 485.547 302.449 485.987C301.65 486.233 300.874 486.533 300.133 486.891C300.125 486.891 300.125 486.899 300.118 486.899C299.96 486.966 299.805 487.041 299.655 487.129C299.475 487.212 299.297 487.302 299.124 487.397C297.191 488.459 295.474 489.861 293.979 491.571C291.746 494.132 290.269 496.924 289.528 499.964C289.215 501.248 289.027 502.585 288.982 503.952L288.979 503.969Z" fill="#235C95"/>
<path d="M312.664 525.443C312.664 525.696 312.807 525.944 312.887 526.189C313.29 526.57 313.798 526.72 314.277 526.555C314.792 526.375 315.113 526.002 315.135 525.466C315.15 525.145 315.165 524.83 315.173 524.509V524.487C315.195 523.718 315.21 522.942 315.203 522.171C315.203 521.515 314.665 521.014 314.023 520.984C313.36 520.962 312.769 521.425 312.732 522.089C312.687 522.918 312.672 523.746 312.672 524.568V524.643C312.664 524.911 312.664 525.173 312.664 525.441V525.443Z" fill="#235C95"/>
<path d="M319.168 524.689C319.168 525.205 319.421 525.593 319.884 525.809C320.355 526.032 320.795 525.936 321.319 525.511C321.379 525.368 321.557 525.1 321.572 524.832C321.609 524.241 321.632 523.645 321.639 523.054V522.897C321.647 522.636 321.647 522.381 321.647 522.121C321.647 521.419 321.116 520.896 320.46 520.881C319.774 520.874 319.25 521.374 319.228 522.106C319.205 522.666 319.19 523.24 319.183 523.808V523.868C319.175 524.136 319.168 524.414 319.168 524.689Z" fill="#235C95"/>
<path d="M316.011 524.414V524.742C316.018 525.398 316.511 525.869 317.145 525.876C317.758 525.891 318.287 525.451 318.317 524.815C318.332 524.562 318.339 524.314 318.347 524.061V524.009C318.377 523.33 318.384 522.657 318.377 521.986C318.369 521.747 318.234 521.507 318.159 521.269C317.779 520.926 317.293 520.776 316.838 520.956C316.389 521.129 316.084 521.472 316.061 521.965C316.031 522.779 316.009 523.6 316.009 524.414H316.011Z" fill="#235C95"/>
<path d="M322.453 524.123C322.453 524.369 322.581 524.624 322.618 524.759C323.029 525.184 323.402 525.297 323.828 525.147C324.268 525.004 324.514 524.676 324.536 524.236C324.574 523.437 324.589 522.631 324.581 521.832C324.581 521.667 324.544 521.519 324.476 521.384C324.439 521.301 324.394 521.226 324.334 521.161C324.146 520.93 323.856 520.795 323.543 520.787C322.959 520.787 322.519 521.206 322.496 521.819C322.489 522.034 322.481 522.252 322.466 522.467C322.466 522.535 322.459 522.61 322.459 522.677C322.451 523.163 322.444 523.641 322.451 524.127L322.453 524.123Z" fill="#235C95"/>
<path d="M325.144 520.823C325.487 521.436 325.42 522.048 325.412 522.638C325.412 522.713 325.472 522.826 325.532 522.846C325.995 522.974 326.704 522.659 326.936 522.241C327.272 521.643 326.891 520.806 326.213 520.726C325.922 520.688 325.622 520.711 325.249 520.718H325.084C325.106 520.756 325.129 520.786 325.144 520.823Z" fill="#235C95"/>
</g>
<defs>
<filter id="filter0_d_13_2951" x="76.9365" y="381.379" width="284.127" height="177.243" filterUnits="userSpaceOnUse" color-interpolation-filters="sRGB">
<feFlood flood-opacity="0" result="BackgroundImageFix"/>
<feColorMatrix in="SourceAlpha" type="matrix" values="0 0 0 0 0 0 0 0 0 0 0 0 0 0 0 0 0 0 127 0" result="hardAlpha"/>
<feOffset dx="4" dy="4"/>
<feGaussianBlur stdDeviation="2"/>
<feComposite in2="hardAlpha" operator="out"/>
<feColorMatrix type="matrix" values="0 0 0 0 0 0 0 0 0 0 0 0 0 0 0 0 0 0 0.25 0"/>
<feBlend mode="normal" in2="BackgroundImageFix" result="effect1_dropShadow_13_2951"/>
<feBlend mode="normal" in="SourceGraphic" in2="effect1_dropShadow_13_2951" result="shape"/>
</filter>
</defs>
</svg>
