<svg width="24" height="25" viewBox="0 0 24 25" fill="none" xmlns="http://www.w3.org/2000/svg">
<mask id="mask0_272_864" style="mask-type:alpha" maskUnits="userSpaceOnUse" x="0" y="0" width="24" height="25">
<rect y="0.0375977" width="24" height="24" fill="#D9D9D9"/>
</mask>
<g mask="url(#mask0_272_864)">
<path d="M11.25 12.7876H6.25C6.0375 12.7876 5.85942 12.7157 5.71575 12.5718C5.57192 12.428 5.5 12.2498 5.5 12.0373C5.5 11.8247 5.57192 11.6466 5.71575 11.5031C5.85942 11.3594 6.0375 11.2876 6.25 11.2876H11.25V6.2876C11.25 6.0751 11.3219 5.89701 11.4658 5.75335C11.6096 5.60951 11.7878 5.5376 12.0003 5.5376C12.2129 5.5376 12.391 5.60951 12.5345 5.75335C12.6782 5.89701 12.75 6.0751 12.75 6.2876V11.2876H17.75C17.9625 11.2876 18.1406 11.3595 18.2843 11.5033C18.4281 11.6472 18.5 11.8253 18.5 12.0378C18.5 12.2505 18.4281 12.4286 18.2843 12.5721C18.1406 12.7158 17.9625 12.7876 17.75 12.7876H12.75V17.7876C12.75 18.0001 12.6781 18.1782 12.5342 18.3218C12.3904 18.4657 12.2122 18.5376 11.9997 18.5376C11.7871 18.5376 11.609 18.4657 11.4655 18.3218C11.3218 18.1782 11.25 18.0001 11.25 17.7876V12.7876Z" fill="#333333"/>
</g>
</svg>
