<svg width="25" height="25" viewBox="0 0 25 25" fill="none" xmlns="http://www.w3.org/2000/svg">
<mask id="mask0_13_3334" style="mask-type:alpha" maskUnits="userSpaceOnUse" x="0" y="0" width="25" height="25">
<rect x="0.5" y="0.432007" width="24" height="24" fill="#D9D9D9"/>
</mask>
<g mask="url(#mask0_13_3334)">
<path d="M5.61561 20.932C5.11844 20.932 4.69286 20.755 4.33886 20.401C3.98486 20.047 3.80786 19.6214 3.80786 19.1242V5.73974C3.80786 5.24257 3.98486 4.81699 4.33886 4.46299C4.69286 4.10899 5.11844 3.93199 5.61561 3.93199H13.5579C13.7704 3.93199 13.9484 4.0039 14.0921 4.14774C14.2359 4.29157 14.3079 4.46974 14.3079 4.68224C14.3079 4.8949 14.2359 5.07299 14.0921 5.21649C13.9484 5.36015 13.7704 5.43199 13.5579 5.43199H5.61561C5.52578 5.43199 5.45203 5.46082 5.39436 5.51849C5.33669 5.57615 5.30786 5.6499 5.30786 5.73974V19.1242C5.30786 19.2141 5.33669 19.2878 5.39436 19.3455C5.45203 19.4032 5.52578 19.432 5.61561 19.432H19.0001C19.0898 19.432 19.1635 19.4032 19.2214 19.3455C19.279 19.2878 19.3079 19.2141 19.3079 19.1242V11.182C19.3079 10.9695 19.3798 10.7913 19.5236 10.6475C19.6673 10.5038 19.8454 10.432 20.0581 10.432C20.2708 10.432 20.4489 10.5038 20.5924 10.6475C20.736 10.7913 20.8079 10.9695 20.8079 11.182V19.1242C20.8079 19.6214 20.6309 20.047 20.2769 20.401C19.9229 20.755 19.4973 20.932 19.0001 20.932H5.61561ZM17.6924 7.04724H16.4424C16.2299 7.04724 16.0518 6.9754 15.9081 6.83174C15.7643 6.6879 15.6924 6.50965 15.6924 6.29698C15.6924 6.08448 15.7643 5.9064 15.9081 5.76274C16.0518 5.61924 16.2299 5.54749 16.4424 5.54749H17.6924V4.29724C17.6924 4.0849 17.7643 3.90682 17.9081 3.76299C18.0519 3.61932 18.2302 3.54749 18.4429 3.54749C18.6554 3.54749 18.8334 3.61932 18.9771 3.76299C19.1206 3.90682 19.1924 4.0849 19.1924 4.29724V5.54749H20.4424C20.6549 5.54749 20.833 5.61932 20.9769 5.76299C21.1205 5.90682 21.1924 6.08507 21.1924 6.29774C21.1924 6.51024 21.1205 6.68832 20.9769 6.83199C20.833 6.97549 20.6549 7.04724 20.4424 7.04724H19.1924V8.29724C19.1924 8.50974 19.1204 8.6879 18.9766 8.83174C18.8328 8.9754 18.6546 9.04724 18.4421 9.04724C18.2294 9.04724 18.0514 8.9754 17.9079 8.83174C17.7642 8.6879 17.6924 8.50974 17.6924 8.29724V7.04724ZM11.5386 16.4512L9.90011 14.3512C9.80645 14.2371 9.68753 14.18 9.54336 14.18C9.3992 14.18 9.28028 14.2403 9.18661 14.361L7.60986 16.459C7.48936 16.6128 7.47344 16.7717 7.56211 16.9357C7.65094 17.0999 7.78411 17.182 7.96161 17.182H16.7309C16.9084 17.182 17.0415 17.0999 17.1304 16.9357C17.2192 16.7717 17.2065 16.6128 17.0924 16.459L14.7079 13.2647C14.6142 13.1442 14.4936 13.084 14.3461 13.084C14.1988 13.084 14.0781 13.1451 13.9841 13.2672L11.5386 16.4512Z" fill="#999999"/>
</g>
</svg>
