<svg width="110" height="26" viewBox="0 0 110 26" fill="none" xmlns="http://www.w3.org/2000/svg">
<g clip-path="url(#clip0_13_2998)">
<path d="M5.26853 23.8637C4.37077 23.5389 3.57742 23.0811 2.88849 22.4912C2.19866 21.9022 1.66411 21.2267 1.28305 20.4646C0.901996 19.7033 0.711914 18.893 0.711914 18.0328V8.41711C0.711914 7.86471 0.949293 7.38549 1.42316 6.98034C1.88275 6.58769 2.44942 6.39136 3.12497 6.39136C3.75679 6.39136 4.30294 6.58769 4.76253 6.98034C5.2364 7.38549 5.47378 7.86471 5.47378 8.41711L5.55945 17.9221C5.55945 17.9837 5.54517 18.1006 5.51661 18.2719C5.63173 18.8243 5.93693 19.2794 6.43222 19.6355C6.9275 19.9916 7.52006 20.1701 8.20989 20.1701C8.54008 20.1701 8.86313 20.1121 9.17904 19.9952C9.49495 19.8782 9.77516 19.7221 10.0197 19.5257C10.2633 19.3294 10.4579 19.0965 10.6015 18.8252C10.7452 18.5557 10.8237 18.2791 10.8389 17.9962L10.8817 17.757V8.43675C10.8817 7.85936 11.1111 7.37479 11.5707 6.98124C12.0303 6.58858 12.5969 6.39225 13.2725 6.39225C13.5884 6.39225 13.8891 6.4449 14.1774 6.54842C14.4647 6.65283 14.7155 6.7974 14.9315 6.98124C15.3911 7.37479 15.6204 7.85936 15.6204 8.43675V17.8498C15.6204 17.973 15.6133 18.0461 15.599 18.0702C15.6561 18.6601 15.9435 19.1509 16.461 19.5436C16.9635 19.9371 17.5525 20.1335 18.228 20.1335C18.9036 20.1335 19.5639 19.9247 20.1235 19.507C20.6544 19.1268 20.9561 18.6289 21.0284 18.0149V8.418C21.0284 7.85311 21.2577 7.37479 21.7173 6.98124C22.1769 6.58858 22.7436 6.39225 23.4191 6.39225C23.735 6.39225 24.0367 6.4449 24.324 6.54842C24.6114 6.65283 24.863 6.7974 25.0781 6.98124C25.552 7.38639 25.7893 7.86561 25.7893 8.418V18.0336C25.7893 18.8814 25.5912 19.6855 25.1968 20.4467C24.8014 21.2088 24.2455 21.8897 23.5271 22.4912C22.823 23.0802 22.0082 23.5389 21.0819 23.8637C20.1556 24.1894 19.19 24.3519 18.1843 24.3519C17.1785 24.3519 16.3129 24.2046 15.4589 23.9101C14.604 23.6156 13.8392 23.198 13.1645 22.6572C12.4604 23.198 11.6778 23.6147 10.8166 23.9101C9.95454 24.2046 9.05678 24.3519 8.12332 24.3519C7.11759 24.3519 6.16628 24.1894 5.26853 23.8637Z" fill="#235C95"/>
<path d="M29.8644 3.88636C29.3477 3.44462 29.0889 2.91632 29.0889 2.30234C29.0889 2.00696 29.1567 1.72228 29.2932 1.44564C29.4298 1.16899 29.6198 0.92715 29.8644 0.717435C30.3668 0.288189 30.9843 0.0731201 31.717 0.0731201C32.0757 0.0731201 32.414 0.127557 32.7299 0.239107C33.0458 0.349765 33.3251 0.509505 33.5696 0.718328C33.8132 0.92715 34.0042 1.16988 34.1408 1.44653C34.2773 1.72317 34.3451 2.00785 34.3451 2.30324C34.3451 2.91721 34.0863 3.44551 33.5696 3.88725C33.3251 4.09607 33.0422 4.25849 32.7183 4.3754C32.3952 4.4923 32.0615 4.55031 31.717 4.55031C30.9986 4.55031 30.3811 4.32988 29.8644 3.88725V3.88636ZM30.0152 23.7254C29.5261 23.3327 29.2825 22.8535 29.2825 22.2886V8.41798C29.2825 8.14758 29.3468 7.887 29.4762 7.63534C29.6056 7.38369 29.7849 7.16594 30.0152 6.98121C30.2302 6.79738 30.489 6.65013 30.7907 6.53947C31.0923 6.42882 31.4082 6.37349 31.7384 6.37349C32.3845 6.37349 32.9449 6.57606 33.4188 6.98121C33.6196 7.16594 33.7811 7.38369 33.9034 7.63534C34.0256 7.887 34.0863 8.14848 34.0863 8.41798V22.2886C34.0863 22.8535 33.857 23.3327 33.3974 23.7254C32.9378 24.1189 32.3774 24.3144 31.717 24.3144C31.0566 24.3144 30.4748 24.118 30.0152 23.7254Z" fill="#235C95"/>
<path d="M38.5091 23.5594C38.0352 23.1793 37.7979 22.7063 37.7979 22.1414V2.00791C37.7979 1.44302 38.0415 0.964688 38.5305 0.571138C39.0044 0.190974 39.5648 0 40.2109 0C40.857 0 41.4174 0.190974 41.8913 0.571138C42.3509 0.964688 42.5811 1.44302 42.5811 2.00791L42.5597 12.6186L49.4535 7.18474C49.8846 6.82867 50.4013 6.65019 51.0045 6.65019C51.3062 6.65019 51.6114 6.70552 51.9201 6.81618C52.2289 6.92683 52.4984 7.07408 52.7278 7.25792C52.9571 7.44264 53.14 7.66307 53.2775 7.92097C53.4131 8.17888 53.4818 8.43678 53.4818 8.69468C53.4818 8.95259 53.4176 9.22567 53.2882 9.47732C53.1588 9.72898 52.9723 9.95387 52.7278 10.1493L46.6737 14.9201L53.9334 20.6859C54.3644 21.0295 54.5795 21.4659 54.5795 21.9942C54.5795 22.5225 54.3421 23.0374 53.8682 23.4675C53.3944 23.8968 52.8482 24.1118 52.2307 24.1118C51.5123 24.0869 50.9233 23.8789 50.4637 23.4854L42.5579 17.2038V22.1405C42.5579 22.7179 42.3277 23.19 41.8681 23.5586C41.653 23.7433 41.4014 23.8878 41.114 23.9914C40.8267 24.0958 40.525 24.1475 40.2091 24.1475C39.5336 24.1475 38.9669 23.9512 38.5073 23.5577L38.5091 23.5594Z" fill="#235C95"/>
<path d="M84.0903 23.7165C83.2068 23.4283 82.442 23.0133 81.7959 22.4734C81.1213 21.9201 80.5965 21.2731 80.2235 20.5297C79.8496 19.7873 79.6631 18.9734 79.6631 18.089V2.06324C79.6631 1.48585 79.8853 0.99503 80.3306 0.589878C80.7616 0.197221 81.3069 0 81.9682 0C82.6294 0 83.2247 0.197221 83.7128 0.589878C84.201 1.00752 84.4455 1.49835 84.4455 2.06324V18.089C84.4455 18.7405 84.6534 19.2402 85.0702 19.59C85.4869 19.9399 86.075 20.121 86.8371 20.1335H86.9451C87.6198 20.1335 88.1873 20.3307 88.6469 20.7234C89.0922 21.1036 89.3144 21.5828 89.3144 22.1602C89.3144 22.7375 89.0913 23.2284 88.6469 23.5969C88.2016 23.9655 87.634 24.1493 86.9451 24.1493C85.9251 24.1493 84.9738 24.0056 84.0912 23.7165H84.0903Z" fill="#235C95"/>
<path d="M56.0439 14.498V15.2512C56.0547 15.5395 56.0761 15.834 56.1118 16.1293C56.1546 16.4881 56.218 16.8406 56.3036 17.1851C56.5241 18.0953 56.8828 18.9583 57.3772 19.7721C58.0911 20.9519 59.0121 21.9434 60.149 22.7153C61.5206 23.6461 62.9886 24.169 64.545 24.3073C64.7761 24.3287 65.0108 24.343 65.2455 24.343C65.3419 24.3466 65.4338 24.3466 65.5302 24.343C65.7685 24.343 66.0067 24.3287 66.2477 24.3073C66.4217 24.2966 66.5957 24.2752 66.7697 24.2538C66.8902 24.2359 66.933 24.1931 66.9295 24.0691C66.9295 23.7772 66.9366 23.4827 66.9473 23.1909C66.9616 22.7715 67.1535 22.4663 67.5301 22.295C67.9245 22.1209 68.294 22.1888 68.6143 22.4725C68.6893 22.5404 68.7277 22.5261 68.7919 22.4618C69.1614 22.071 69.7477 22.0495 70.1421 22.4154C70.2064 22.4725 70.2448 22.5154 70.334 22.4404C70.7713 22.0603 71.2478 22.0567 71.6949 22.419C71.7128 22.4333 71.7342 22.4476 71.7592 22.4618C71.7913 22.4368 71.8198 22.4119 71.8484 22.3833C72.0189 22.2057 72.2286 22.1165 72.474 22.1093C72.8042 22.0951 73.1245 22.0879 73.4547 22.0808H73.4583C73.494 22.0808 73.5333 22.0772 73.5681 22.0772C73.6029 22.0772 73.6359 22.0736 73.6707 22.0736H73.7278C73.7849 22.0736 73.8447 22.0701 73.9018 22.0701C74.2392 22.0665 74.4917 21.8389 74.4988 21.5337C74.5024 21.3633 74.4382 21.2178 74.3248 21.1214C74.3177 21.1143 74.3105 21.1072 74.2998 21.1036C74.2534 21.0608 74.1936 21.0286 74.1258 21.0072C74.1187 21.0037 74.108 21.0001 74.1008 20.9965C74.0509 20.9787 73.9946 20.968 73.934 20.9644C73.5217 20.943 73.1058 20.9251 72.6935 20.9037C72.6685 20.9001 72.6435 20.9001 72.6185 20.9001C72.5686 20.8966 72.5257 20.8859 72.4909 20.868C72.4552 20.8537 72.4267 20.8323 72.4088 20.8073C72.3838 20.7752 72.3731 20.7359 72.3731 20.6904C72.3767 20.6297 72.3981 20.5842 72.4374 20.5521C72.4552 20.5342 72.4802 20.5235 72.5052 20.5164C72.5445 20.5057 72.5873 20.5021 72.6364 20.5057C73.0987 20.5271 73.56 20.5521 74.0223 20.5771C74.0937 20.5771 74.1606 20.5842 74.2284 20.5842H74.2356C74.2606 20.5842 74.2856 20.5842 74.3105 20.5771C74.4034 20.5664 74.4881 20.5342 74.5595 20.4878C74.5702 20.4843 74.5774 20.4771 74.5881 20.47C74.7335 20.37 74.8264 20.2103 74.8371 20.0113C74.8406 19.9221 74.8228 19.8373 74.7871 19.7623C74.7835 19.7552 74.7835 19.7516 74.7764 19.7445V19.7409C74.7371 19.6588 74.6773 19.5847 74.6024 19.5312C74.5631 19.4991 74.5167 19.4705 74.4676 19.4527C74.4105 19.4277 74.3507 19.4098 74.2829 19.4062C73.8456 19.3777 73.4083 19.3598 72.971 19.3384C72.9354 19.3349 72.9032 19.3349 72.8684 19.3313C72.8113 19.3241 72.7622 19.3027 72.7265 19.267C72.6873 19.2313 72.6658 19.1814 72.673 19.118C72.6766 19.0573 72.698 19.0118 72.7337 18.9797C72.7515 18.9654 72.7729 18.9547 72.7943 18.9476C72.8229 18.9368 72.855 18.9333 72.8907 18.9368C73.0183 18.944 73.1433 18.9476 73.2709 18.9547C73.6546 18.9725 74.0384 19.0011 74.4221 19.0082C74.4542 19.0082 74.4863 19.0082 74.5149 19.0011C74.5613 18.9975 74.6041 18.9904 74.6425 18.9761C74.7559 18.9476 74.8558 18.8904 74.9308 18.8164L74.9379 18.8092C75.0869 18.6566 75.1583 18.4326 75.1048 18.1944C75.0798 18.098 75.0405 18.0096 74.9807 17.9382C74.9236 17.8597 74.8496 17.7999 74.7639 17.7571C74.6961 17.725 74.6256 17.7035 74.5435 17.6964H74.5399C72.955 17.5438 71.3977 17.6964 69.8592 18.0837H69.8521V18.0873C69.8093 18.0944 69.7664 18.1087 69.7245 18.1194C69.7031 18.123 69.6852 18.1301 69.6674 18.1373C69.5924 18.1587 69.5219 18.1837 69.4577 18.2194C69.1132 18.372 68.8606 18.6388 68.6295 18.9476C68.3877 19.2742 68.1387 19.5981 67.8906 19.9176L67.887 19.9212C67.887 19.9212 67.8835 19.9247 67.8799 19.9283C67.862 19.9497 67.8478 19.9711 67.8299 19.9926C67.7273 20.1309 67.6238 20.2665 67.5176 20.4013C67.3578 20.611 67.1945 20.8207 67.0339 21.0304C67.0125 21.059 66.9911 21.084 66.9661 21.1054C66.6921 21.3972 66.3155 21.4391 65.9889 21.2151C65.9639 21.1973 65.9389 21.1759 65.9175 21.158C65.8961 21.1402 65.8782 21.1223 65.8604 21.1009C65.7078 20.9233 65.6507 20.6815 65.7185 20.4361C65.7256 20.4111 65.7328 20.3897 65.7399 20.3683C65.747 20.3468 65.7542 20.3219 65.7685 20.2969C65.8113 20.2041 65.8541 20.105 65.8961 20.0122C65.8996 20.0015 65.9068 19.9872 65.9104 19.9765V19.9729C65.9139 19.9658 65.9175 19.9622 65.9211 19.9551C66.0915 19.5856 66.262 19.2197 66.436 18.8422C66.6064 18.4799 66.7733 18.1105 66.9197 17.716C66.834 17.7696 66.7421 17.816 66.66 17.8722C66.262 18.1355 65.9737 18.5049 65.6971 18.8851C65.4409 19.2438 65.1821 19.599 64.9082 19.9408C64.9046 19.9444 64.901 19.9515 64.8939 19.9551C64.8868 19.9622 64.8832 19.9658 64.8796 19.9729L64.8761 19.9765C64.8653 19.9872 64.8582 19.9943 64.8439 20.0086V20.0122C64.7725 20.0836 64.6949 20.1362 64.6092 20.1684C64.545 20.1969 64.478 20.2148 64.4067 20.2148C64.3138 20.229 64.2148 20.2183 64.1148 20.1933C63.9301 20.1469 63.7454 20.0836 63.5642 20.0122C63.5357 20.0015 63.5071 19.9872 63.4786 19.9765C63.475 19.9765 63.475 19.9729 63.4714 19.9729C63.4571 19.9658 63.4429 19.9622 63.4286 19.9551C63.4143 19.9479 63.4 19.9444 63.3857 19.9372C63.0698 19.7953 62.7459 19.6526 62.4514 19.4678C62.0462 19.2153 61.6875 18.8958 61.3707 18.5335L61.3671 18.5299C61.2815 18.43 61.2002 18.3309 61.1253 18.2274C61.0432 18.1248 60.9727 18.0177 60.9013 17.9115C60.4569 17.2395 60.1695 16.497 60.0517 15.7403C60.041 15.6724 60.0303 15.6055 60.0232 15.5377C60.016 15.4627 60.0089 15.3922 60.0018 15.3208C59.9946 15.2423 59.991 15.1682 59.9875 15.0897C59.9768 14.9121 59.9803 14.7345 59.991 14.5569C59.9982 14.4436 60.0089 14.3329 60.0232 14.2232C60.0339 14.1375 60.0446 14.0563 60.0589 13.9706C60.1615 13.395 60.3578 12.8301 60.6523 12.2858C60.6559 12.2822 60.6559 12.2786 60.6595 12.2751V12.2715C60.7344 12.1332 60.8156 12.0011 60.9013 11.8735C61.0825 11.5888 61.285 11.3264 61.5019 11.0882C61.7794 10.7892 62.081 10.5268 62.4086 10.31C62.6575 10.1395 62.9235 9.99764 63.201 9.87628C63.8123 9.61659 64.495 9.46756 65.2411 9.43543C66.0763 9.4033 66.8402 9.53895 67.5336 9.8263C68.426 10.1922 69.1971 10.8213 69.8405 11.6887C69.8476 11.6995 69.8548 11.7102 69.8619 11.7209C70.0823 12.027 70.2492 12.3786 70.4161 12.7195C70.7043 13.3022 70.832 13.9278 70.8641 14.5676V14.5819C70.8677 14.6319 70.8641 14.6783 70.8569 14.7238V14.7274C70.8427 14.8479 70.8034 14.9549 70.7472 15.0469C70.7079 15.1075 70.6615 15.1602 70.6053 15.2102C70.5625 15.2494 70.516 15.2851 70.467 15.3137C70.417 15.3494 70.3679 15.3779 70.3108 15.4029C70.1653 15.4708 70.0225 15.5377 69.8771 15.6055C69.8128 15.6341 69.7459 15.6662 69.6816 15.6983C69.6067 15.7304 69.5326 15.7661 69.4577 15.8018C69.1873 15.9259 68.9178 16.0472 68.6509 16.1713C68.1958 16.3846 67.862 16.7255 67.6488 17.177C67.215 18.1007 66.7885 19.0288 66.3548 19.956C66.3476 19.9738 66.3369 19.9952 66.3298 20.0131C66.2691 20.1478 66.2093 20.2763 66.1486 20.4075C66.1451 20.4182 66.1415 20.4254 66.1343 20.4361C66.1022 20.511 66.0844 20.5815 66.0915 20.6494C66.0951 20.7172 66.1236 20.777 66.1772 20.8412V20.8448C66.2771 20.9546 66.4012 20.9831 66.5359 20.9305C66.5573 20.9198 66.5823 20.9091 66.6037 20.8948C66.6394 20.8734 66.6716 20.8412 66.6966 20.8091C66.7929 20.6851 66.8884 20.5601 66.9848 20.4361C67.0946 20.2978 67.2017 20.155 67.3114 20.0131C67.3257 19.9952 67.34 19.9738 67.3543 19.956C67.713 19.4901 68.0718 19.0252 68.4278 18.5594C68.7018 18.1935 69.0391 17.9338 69.4585 17.7848C69.5157 17.7669 69.5755 17.7455 69.6361 17.7312C69.7182 17.7098 69.7959 17.6884 69.878 17.6741C69.903 17.667 69.9244 17.6634 69.9494 17.6598C69.9672 17.6527 69.9851 17.6491 70.0029 17.6455C70.0279 17.6384 70.0529 17.6313 70.0779 17.6277C70.0779 17.6277 70.0803 17.6265 70.085 17.6241C71.503 17.2868 72.9389 17.1654 74.3998 17.2832C74.4355 17.2868 74.464 17.2868 74.4855 17.2761C74.5033 17.2725 74.514 17.2618 74.5247 17.2511C74.5319 17.244 74.539 17.2368 74.5426 17.2297C74.5461 17.2261 74.5461 17.2225 74.5497 17.219V17.2154C74.564 17.1976 74.5711 17.169 74.5783 17.1369C74.6032 17.0342 74.6247 16.9307 74.6461 16.8245V16.821C74.6961 16.5827 74.7353 16.348 74.7666 16.1097V16.1061C74.788 15.9357 74.8058 15.7724 74.8201 15.601C74.8344 15.4377 74.8451 15.2709 74.8487 15.1067C74.8558 14.8827 74.8522 14.6587 74.8415 14.4382C74.8344 14.2963 74.8272 14.1536 74.813 14.0152C74.8023 13.8841 74.7844 13.752 74.7666 13.6244C74.7451 13.4718 74.7237 13.3183 74.6952 13.1692C74.6666 13.0274 74.6381 12.8881 74.6059 12.7462C74.5881 12.6641 74.5667 12.5829 74.5417 12.5008C74.456 12.1671 74.3462 11.8324 74.2186 11.5022C73.8991 10.6598 73.4797 9.8852 72.9568 9.18823C72.8997 9.1097 72.8399 9.03563 72.7792 8.96067C72.6551 8.80807 72.5302 8.66172 72.399 8.51982C72.3312 8.44843 72.2643 8.3815 72.1964 8.31011C72.0929 8.20391 71.9867 8.10396 71.8805 8.00491C71.7708 7.90496 71.6565 7.8059 71.5432 7.71309C71.1987 7.42841 70.8462 7.17319 70.4911 6.93848C70.1359 6.71092 69.7736 6.50478 69.4068 6.32719C69.2042 6.23081 69.0016 6.14246 68.7991 6.06393C68.7527 6.04251 68.7098 6.02466 68.6643 6.00682C68.5367 5.95684 68.4082 5.91044 68.2806 5.86849C68.153 5.82923 68.0209 5.78639 67.8897 5.75159C67.63 5.6802 67.3712 5.62397 67.1044 5.574C67.058 5.56686 67.0116 5.55972 66.9661 5.55258C66.8349 5.5276 66.7064 5.51332 66.5752 5.49904C66.5681 5.49547 66.5609 5.49547 66.5538 5.49547C66.3905 5.47405 66.2272 5.46334 66.0594 5.45263C65.8961 5.44192 65.7292 5.43835 65.5614 5.43835C65.2027 5.43835 64.8439 5.45977 64.4736 5.50261C64.4629 5.50261 64.4486 5.50618 64.4379 5.50618C63.7909 5.58471 63.1296 5.73017 62.455 5.93989C62.0748 6.05679 61.7054 6.19957 61.3529 6.37002C61.3493 6.37002 61.3493 6.37359 61.3457 6.37359C61.2707 6.40572 61.1967 6.44142 61.1253 6.48336C61.0396 6.52262 60.9548 6.56546 60.8727 6.61097C59.9527 7.11607 59.1352 7.78359 58.424 8.59746C57.3611 9.81648 56.6579 11.1453 56.3054 12.5919C56.1564 13.2032 56.0671 13.8394 56.0457 14.49L56.0439 14.498Z" fill="#235C95"/>
<path d="M67.3174 24.7187C67.3174 24.8392 67.3852 24.957 67.4236 25.0739C67.6154 25.255 67.8573 25.3264 68.0849 25.2479C68.3303 25.1622 68.4829 24.9846 68.4936 24.7294C68.5007 24.5768 68.5078 24.4269 68.5114 24.2743V24.2636C68.5221 23.8977 68.5293 23.5282 68.5257 23.1615C68.5257 22.8491 68.2696 22.6108 67.9644 22.5966C67.6485 22.5859 67.3674 22.8063 67.3495 23.1222C67.3281 23.5166 67.321 23.9111 67.321 24.3019V24.3376C67.3174 24.4653 67.3174 24.5902 67.3174 24.7178V24.7187Z" fill="#235C95"/>
<path d="M70.4121 24.36C70.4121 24.6054 70.5326 24.7901 70.753 24.8928C70.977 24.999 71.1867 24.9534 71.4357 24.7509C71.4643 24.683 71.549 24.5554 71.5562 24.4278C71.574 24.1467 71.5847 23.8629 71.5883 23.5818V23.5069C71.5919 23.3828 71.5919 23.2614 71.5919 23.1374C71.5919 22.8036 71.3393 22.5547 71.027 22.5475C70.7004 22.544 70.4514 22.7822 70.4407 23.1303C70.43 23.3971 70.4228 23.6702 70.4193 23.9406V23.9691C70.4157 24.0967 70.4121 24.2288 70.4121 24.36Z" fill="#235C95"/>
<path d="M68.9101 24.2288V24.385C68.9136 24.6974 69.1483 24.9213 69.45 24.9249C69.7418 24.9321 69.9934 24.7223 70.0077 24.4198C70.0149 24.2993 70.0184 24.1815 70.022 24.0611V24.0361C70.0363 23.713 70.0399 23.3927 70.0363 23.0732C70.0327 22.9598 69.9685 22.8456 69.9328 22.7323C69.7516 22.569 69.5205 22.4976 69.3036 22.5832C69.0903 22.6653 68.9449 22.8287 68.9342 23.0634C68.9199 23.4507 68.9092 23.8415 68.9092 24.2288H68.9101Z" fill="#235C95"/>
<path d="M71.977 24.0895C71.977 24.2064 72.0377 24.3278 72.0555 24.3921C72.2509 24.5946 72.4285 24.6482 72.6311 24.5768C72.8408 24.509 72.9577 24.3528 72.9684 24.1431C72.9863 23.7629 72.9934 23.3792 72.9899 22.999C72.9899 22.9205 72.972 22.85 72.9399 22.7857C72.922 22.7465 72.9006 22.7108 72.8721 22.6795C72.7828 22.5698 72.6445 22.5055 72.4955 22.502C72.2179 22.502 72.0082 22.701 71.9975 22.9928C71.9939 23.0954 71.9904 23.1989 71.9832 23.3015C71.9832 23.3337 71.9797 23.3694 71.9797 23.4015C71.9761 23.6326 71.9725 23.8602 71.9761 24.0913L71.977 24.0895Z" fill="#235C95"/>
<path d="M73.2571 22.5198C73.4204 22.8116 73.3883 23.1025 73.3847 23.3837C73.3847 23.4193 73.4132 23.4729 73.4418 23.4827C73.6622 23.5434 73.9995 23.3935 74.1102 23.1945C74.2699 22.9098 74.0888 22.5118 73.7657 22.4734C73.6274 22.4556 73.4846 22.4663 73.307 22.4698H73.2285C73.2392 22.4877 73.2499 22.502 73.2571 22.5198Z" fill="#235C95"/>
<path d="M90.21 14.498V15.2512C90.2207 15.5395 90.2421 15.834 90.2778 16.1293C90.3206 16.4881 90.384 16.8406 90.4696 17.1851C90.6901 18.0953 91.0488 18.9583 91.5432 19.7721C92.2571 20.9519 93.1781 21.9434 94.315 22.7153C95.6866 23.6461 97.1546 24.169 98.711 24.3073C98.9421 24.3287 99.1768 24.343 99.4115 24.343C99.5079 24.3466 99.5998 24.3466 99.6962 24.343C99.9345 24.343 100.173 24.3287 100.414 24.3073C100.588 24.2966 100.762 24.2752 100.936 24.2538C101.056 24.2359 101.099 24.1931 101.095 24.0691C101.095 23.7772 101.103 23.4827 101.113 23.1909C101.128 22.7715 101.319 22.4663 101.696 22.295C102.091 22.1209 102.46 22.1888 102.78 22.4725C102.855 22.5404 102.894 22.5261 102.958 22.4618C103.327 22.071 103.914 22.0495 104.308 22.4154C104.372 22.4725 104.411 22.5154 104.5 22.4404C104.937 22.0603 105.414 22.0567 105.861 22.419C105.879 22.4333 105.9 22.4476 105.925 22.4618C105.957 22.4368 105.986 22.4119 106.014 22.3833C106.185 22.2057 106.395 22.1165 106.64 22.1093C106.97 22.0951 107.291 22.0879 107.621 22.0808H107.624C107.66 22.0808 107.699 22.0772 107.734 22.0772C107.769 22.0772 107.802 22.0736 107.837 22.0736H107.894C107.951 22.0736 108.011 22.0701 108.068 22.0701C108.405 22.0665 108.658 21.8389 108.665 21.5337C108.668 21.3633 108.604 21.2178 108.491 21.1214C108.484 21.1143 108.477 21.1072 108.466 21.1036C108.419 21.0608 108.36 21.0286 108.292 21.0072C108.285 21.0037 108.274 21.0001 108.267 20.9965C108.217 20.9787 108.161 20.968 108.1 20.9644C107.688 20.943 107.272 20.9251 106.86 20.9037C106.835 20.9001 106.81 20.9001 106.785 20.9001C106.735 20.8966 106.692 20.8859 106.657 20.868C106.621 20.8537 106.593 20.8323 106.575 20.8073C106.55 20.7752 106.539 20.7359 106.539 20.6904C106.543 20.6297 106.564 20.5842 106.603 20.5521C106.621 20.5342 106.646 20.5235 106.671 20.5164C106.71 20.5057 106.753 20.5021 106.802 20.5057C107.265 20.5271 107.726 20.5521 108.188 20.5771C108.26 20.5771 108.327 20.5842 108.394 20.5842H108.402C108.427 20.5842 108.452 20.5842 108.477 20.5771C108.569 20.5664 108.654 20.5342 108.726 20.4878C108.736 20.4843 108.743 20.4771 108.754 20.47C108.9 20.37 108.992 20.2103 109.003 20.0113C109.007 19.9221 108.989 19.8373 108.953 19.7623C108.95 19.7552 108.95 19.7516 108.942 19.7445V19.7409C108.903 19.6588 108.843 19.5847 108.768 19.5312C108.729 19.4991 108.683 19.4705 108.634 19.4527C108.577 19.4277 108.517 19.4098 108.449 19.4062C108.012 19.3777 107.574 19.3598 107.137 19.3384C107.101 19.3349 107.069 19.3349 107.034 19.3313C106.977 19.3241 106.928 19.3027 106.893 19.267C106.853 19.2313 106.832 19.1814 106.839 19.118C106.843 19.0573 106.864 19.0118 106.9 18.9797C106.918 18.9654 106.939 18.9547 106.96 18.9476C106.989 18.9368 107.021 18.9333 107.057 18.9368C107.184 18.944 107.309 18.9476 107.437 18.9547C107.821 18.9725 108.204 19.0011 108.588 19.0082C108.62 19.0082 108.652 19.0082 108.681 19.0011C108.727 18.9975 108.77 18.9904 108.809 18.9761C108.922 18.9476 109.022 18.8904 109.097 18.8164L109.104 18.8092C109.253 18.6566 109.324 18.4326 109.271 18.1944C109.246 18.098 109.207 18.0096 109.147 17.9382C109.09 17.8597 109.016 17.7999 108.93 17.7571C108.862 17.725 108.792 17.7035 108.709 17.6964H108.706C107.121 17.5438 105.564 17.6964 104.025 18.0837H104.018V18.0873C103.975 18.0944 103.932 18.1087 103.89 18.1194C103.869 18.123 103.851 18.1301 103.833 18.1373C103.758 18.1587 103.688 18.1837 103.624 18.2194C103.279 18.372 103.027 18.6388 102.796 18.9476C102.554 19.2742 102.305 19.5981 102.057 19.9176L102.053 19.9212C102.053 19.9212 102.049 19.9247 102.046 19.9283C102.028 19.9497 102.014 19.9711 101.996 19.9926C101.893 20.1309 101.79 20.2665 101.684 20.4013C101.524 20.611 101.361 20.8207 101.2 21.0304C101.178 21.059 101.157 21.084 101.132 21.1054C100.858 21.3972 100.482 21.4391 100.155 21.2151C100.13 21.1973 100.105 21.1759 100.084 21.158C100.062 21.1402 100.044 21.1223 100.026 21.1009C99.8738 20.9233 99.8167 20.6815 99.8845 20.4361C99.8916 20.4111 99.8988 20.3897 99.9059 20.3683C99.9131 20.3468 99.9202 20.3219 99.9345 20.2969C99.9773 20.2041 100.02 20.105 100.062 20.0122C100.066 20.0015 100.073 19.9872 100.076 19.9765V19.9729C100.08 19.9658 100.084 19.9622 100.087 19.9551C100.258 19.5856 100.428 19.2197 100.602 18.8422C100.772 18.4799 100.939 18.1105 101.086 17.716C101 17.7696 100.908 17.816 100.826 17.8722C100.428 18.1355 100.14 18.5049 99.8631 18.8851C99.607 19.2438 99.3482 19.599 99.0742 19.9408C99.0706 19.9444 99.0671 19.9515 99.0599 19.9551C99.0528 19.9622 99.0492 19.9658 99.0456 19.9729L99.0421 19.9765C99.0314 19.9872 99.0242 19.9943 99.0099 20.0086V20.0122C98.9386 20.0836 98.8609 20.1362 98.7752 20.1684C98.711 20.1969 98.6441 20.2148 98.5727 20.2148C98.4799 20.229 98.3808 20.2183 98.2809 20.1933C98.0961 20.1469 97.9114 20.0836 97.7302 20.0122C97.7017 20.0015 97.6731 19.9872 97.6446 19.9765C97.641 19.9765 97.641 19.9729 97.6374 19.9729C97.6232 19.9658 97.6089 19.9622 97.5946 19.9551C97.5803 19.9479 97.566 19.9444 97.5518 19.9372C97.2359 19.7953 96.9119 19.6526 96.6174 19.4678C96.2123 19.2153 95.8535 18.8958 95.5367 18.5335L95.5331 18.5299C95.4475 18.43 95.3663 18.3309 95.2913 18.2274C95.2092 18.1248 95.1387 18.0177 95.0673 17.9115C94.6229 17.2395 94.3355 16.497 94.2177 15.7403C94.207 15.6724 94.1963 15.6055 94.1892 15.5377C94.182 15.4627 94.1749 15.3922 94.1678 15.3208C94.1606 15.2423 94.1571 15.1682 94.1535 15.0897C94.1428 14.9121 94.1463 14.7345 94.1571 14.5569C94.1642 14.4436 94.1749 14.3329 94.1892 14.2232C94.1999 14.1375 94.2106 14.0563 94.2249 13.9706C94.3275 13.395 94.5238 12.8301 94.8183 12.2858C94.8219 12.2822 94.8219 12.2786 94.8255 12.2751V12.2715C94.9004 12.1332 94.9816 12.0011 95.0673 11.8735C95.2485 11.5888 95.451 11.3264 95.6679 11.0882C95.9454 10.7892 96.2471 10.5268 96.5746 10.31C96.8236 10.1395 97.0895 9.99764 97.367 9.87628C97.9783 9.61659 98.661 9.46756 99.4071 9.43543C100.242 9.4033 101.006 9.53895 101.7 9.8263C102.592 10.1922 103.363 10.8213 104.007 11.6887C104.014 11.6995 104.021 11.7102 104.028 11.7209C104.248 12.027 104.415 12.3786 104.582 12.7195C104.87 13.3022 104.998 13.9278 105.03 14.5676V14.5819C105.034 14.6319 105.03 14.6783 105.023 14.7238V14.7274C105.009 14.8479 104.969 14.9549 104.913 15.0469C104.874 15.1075 104.828 15.1602 104.771 15.2102C104.728 15.2494 104.682 15.2851 104.633 15.3137C104.583 15.3494 104.534 15.3779 104.477 15.4029C104.331 15.4708 104.189 15.5377 104.043 15.6055C103.979 15.6341 103.912 15.6662 103.848 15.6983C103.773 15.7304 103.699 15.7661 103.624 15.8018C103.353 15.9259 103.084 16.0472 102.817 16.1713C102.362 16.3846 102.028 16.7255 101.815 17.177C101.381 18.1007 100.954 19.0288 100.521 19.956C100.514 19.9738 100.503 19.9952 100.496 20.0131C100.435 20.1478 100.375 20.2763 100.315 20.4075C100.311 20.4182 100.307 20.4254 100.3 20.4361C100.268 20.511 100.25 20.5815 100.258 20.6494C100.261 20.7172 100.29 20.777 100.343 20.8412V20.8448C100.443 20.9546 100.567 20.9831 100.702 20.9305C100.723 20.9198 100.748 20.9091 100.77 20.8948C100.805 20.8734 100.838 20.8412 100.863 20.8091C100.959 20.6851 101.054 20.5601 101.151 20.4361C101.261 20.2978 101.368 20.155 101.477 20.0131C101.492 19.9952 101.506 19.9738 101.52 19.956C101.879 19.4901 102.238 19.0252 102.594 18.5594C102.868 18.1935 103.205 17.9338 103.625 17.7848C103.682 17.7669 103.741 17.7455 103.802 17.7312C103.884 17.7098 103.962 17.6884 104.044 17.6741C104.069 17.667 104.09 17.6634 104.115 17.6598C104.133 17.6527 104.151 17.6491 104.169 17.6455C104.194 17.6384 104.219 17.6313 104.244 17.6277C104.244 17.6277 104.246 17.6265 104.251 17.6241C105.669 17.2868 107.105 17.1654 108.566 17.2832C108.601 17.2868 108.63 17.2868 108.651 17.2761C108.669 17.2725 108.68 17.2618 108.691 17.2511C108.698 17.244 108.705 17.2368 108.709 17.2297C108.712 17.2261 108.712 17.2225 108.716 17.219V17.2154C108.73 17.1976 108.737 17.169 108.744 17.1369C108.769 17.0342 108.791 16.9307 108.812 16.8245V16.821C108.862 16.5827 108.901 16.348 108.933 16.1097V16.1061C108.954 15.9357 108.972 15.7724 108.986 15.601C109 15.4377 109.011 15.2709 109.015 15.1067C109.022 14.8827 109.018 14.6587 109.008 14.4382C109 14.2963 108.993 14.1536 108.979 14.0152C108.968 13.8841 108.95 13.752 108.933 13.6244C108.911 13.4718 108.89 13.3183 108.861 13.1692C108.833 13.0274 108.804 12.8881 108.772 12.7462C108.754 12.6641 108.733 12.5829 108.708 12.5008C108.622 12.1671 108.512 11.8324 108.385 11.5022C108.065 10.6598 107.646 9.8852 107.123 9.18823C107.066 9.1097 107.006 9.03563 106.945 8.96067C106.821 8.80807 106.696 8.66172 106.565 8.51982C106.497 8.44843 106.43 8.3815 106.362 8.31011C106.259 8.20391 106.153 8.10396 106.047 8.00491C105.937 7.90496 105.823 7.8059 105.709 7.71309C105.365 7.42841 105.012 7.17319 104.657 6.93848C104.302 6.71092 103.94 6.50478 103.573 6.32719C103.37 6.23081 103.168 6.14246 102.965 6.06393C102.919 6.04251 102.876 6.02466 102.83 6.00682C102.703 5.95684 102.574 5.91044 102.447 5.86849C102.319 5.82923 102.187 5.78639 102.056 5.75159C101.796 5.6802 101.537 5.62397 101.27 5.574C101.224 5.56686 101.178 5.55972 101.132 5.55258C101.001 5.5276 100.872 5.51332 100.741 5.49904C100.734 5.49547 100.727 5.49547 100.72 5.49547C100.556 5.47405 100.393 5.46334 100.225 5.45263C100.062 5.44192 99.8952 5.43835 99.7274 5.43835C99.3687 5.43835 99.0099 5.45977 98.6396 5.50261C98.6289 5.50261 98.6146 5.50618 98.6039 5.50618C97.9569 5.58471 97.2956 5.73017 96.621 5.93989C96.2408 6.05679 95.8714 6.19957 95.5189 6.37002C95.5153 6.37002 95.5153 6.37359 95.5117 6.37359C95.4368 6.40572 95.3627 6.44142 95.2913 6.48336C95.2056 6.52262 95.1209 6.56546 95.0388 6.61097C94.1187 7.11607 93.3012 7.78359 92.59 8.59746C91.5272 9.81648 90.8239 11.1453 90.4714 12.5919C90.3224 13.2032 90.2332 13.8394 90.2117 14.49L90.21 14.498Z" fill="#235C95"/>
<path d="M101.482 24.7187C101.482 24.8392 101.55 24.957 101.589 25.0739C101.78 25.255 102.022 25.3264 102.25 25.2479C102.495 25.1622 102.648 24.9846 102.659 24.7294C102.666 24.5768 102.673 24.4269 102.676 24.2743V24.2636C102.687 23.8977 102.694 23.5282 102.691 23.1615C102.691 22.8491 102.435 22.6108 102.129 22.5966C101.814 22.5859 101.532 22.8063 101.515 23.1222C101.493 23.5166 101.486 23.9111 101.486 24.3019V24.3376C101.482 24.4653 101.482 24.5902 101.482 24.7178V24.7187Z" fill="#235C95"/>
<path d="M104.578 24.36C104.578 24.6054 104.699 24.7901 104.919 24.8928C105.143 24.999 105.353 24.9534 105.602 24.7509C105.63 24.683 105.715 24.5554 105.722 24.4278C105.74 24.1467 105.751 23.8629 105.754 23.5818V23.5069C105.758 23.3828 105.758 23.2614 105.758 23.1374C105.758 22.8036 105.505 22.5547 105.193 22.5475C104.866 22.544 104.617 22.7822 104.607 23.1303C104.596 23.3971 104.589 23.6702 104.585 23.9406V23.9691C104.582 24.0967 104.578 24.2288 104.578 24.36Z" fill="#235C95"/>
<path d="M103.076 24.2288V24.385C103.08 24.6974 103.314 24.9213 103.616 24.9249C103.908 24.9321 104.159 24.7223 104.174 24.4198C104.181 24.2993 104.184 24.1815 104.188 24.0611V24.0361C104.202 23.713 104.206 23.3927 104.202 23.0732C104.199 22.9598 104.134 22.8456 104.099 22.7323C103.918 22.569 103.686 22.4976 103.47 22.5832C103.256 22.6653 103.111 22.8287 103.1 23.0634C103.086 23.4507 103.075 23.8415 103.075 24.2288H103.076Z" fill="#235C95"/>
<path d="M106.142 24.0895C106.142 24.2064 106.203 24.3278 106.221 24.3921C106.416 24.5946 106.594 24.6482 106.796 24.5768C107.006 24.509 107.123 24.3528 107.133 24.1431C107.151 23.7629 107.158 23.3792 107.155 22.999C107.155 22.9205 107.137 22.85 107.105 22.7857C107.087 22.7465 107.066 22.7108 107.037 22.6795C106.948 22.5698 106.81 22.5055 106.661 22.502C106.383 22.502 106.173 22.701 106.163 22.9928C106.159 23.0954 106.155 23.1989 106.148 23.3015C106.148 23.3337 106.145 23.3694 106.145 23.4015C106.141 23.6326 106.138 23.8602 106.141 24.0913L106.142 24.0895Z" fill="#235C95"/>
<path d="M107.423 22.5198C107.586 22.8116 107.554 23.1025 107.551 23.3837C107.551 23.4193 107.579 23.4729 107.608 23.4827C107.828 23.5434 108.166 23.3935 108.276 23.1945C108.436 22.9098 108.255 22.5118 107.932 22.4734C107.793 22.4556 107.651 22.4663 107.473 22.4698H107.395C107.405 22.4877 107.416 22.502 107.423 22.5198Z" fill="#235C95"/>
</g>
<defs>
<clipPath id="clip0_13_2998">
<rect width="108.576" height="25.28" fill="white" transform="translate(0.711914)"/>
</clipPath>
</defs>
</svg>
