<svg width="25" height="25" viewBox="0 0 25 25" fill="none" xmlns="http://www.w3.org/2000/svg">
<mask id="mask0_131_1053" style="mask-type:alpha" maskUnits="userSpaceOnUse" x="0" y="0" width="25" height="25">
<rect y="0.956543" width="24" height="24" transform="rotate(-0.799669 0 0.956543)" fill="#D9D9D9"/>
</mask>
<g mask="url(#mask0_131_1053)">
<path d="M12.2426 18.2488L8.29747 20.0078C7.69863 20.2738 7.12558 20.2325 6.57833 19.8838C6.03107 19.535 5.75294 19.0376 5.74392 18.3915L5.57357 6.18697C5.56652 5.68185 5.73553 5.25187 6.08062 4.89702C6.4257 4.54217 6.8508 4.36122 7.35591 4.35416L16.7395 4.22319C17.2446 4.21614 17.6746 4.38516 18.0295 4.73024C18.3843 5.07532 18.5653 5.50042 18.5723 6.00554L18.7427 18.2101C18.7517 18.8562 18.4875 19.3612 17.9502 19.7251C17.4129 20.0889 16.8412 20.1462 16.2352 19.897L12.2426 18.2488ZM12.2194 16.5875L16.8136 18.4908C16.9169 18.5342 17.0145 18.5232 17.1065 18.458C17.1985 18.3925 17.2438 18.3053 17.2423 18.1963L17.0724 6.02647C17.0714 5.94948 17.0383 5.87943 16.9733 5.81633C16.9084 5.75307 16.8374 5.72197 16.7604 5.72304L7.37685 5.85402C7.29986 5.85509 7.22981 5.88816 7.16671 5.95321C7.10345 6.0181 7.07235 6.08904 7.07342 6.16603L7.24329 18.3358C7.24481 18.4448 7.29251 18.5308 7.3864 18.5936C7.48012 18.6563 7.57799 18.6645 7.68002 18.6183L12.2194 16.5875Z" fill="#333333"/>
</g>
</svg>
