<svg width="27" height="27" viewBox="0 0 27 27" fill="none" xmlns="http://www.w3.org/2000/svg">
<mask id="mask0_131_1257" style="mask-type:alpha" maskUnits="userSpaceOnUse" x="0" y="0" width="27" height="27">
<rect y="0.0377197" width="26.7854" height="26.7854" fill="#D9D9D9"/>
</mask>
<g mask="url(#mask0_131_1257)">
<path d="M13.3927 19.5258L8.96277 21.4273C8.29034 21.7149 7.65149 21.6598 7.04622 21.2621C6.44094 20.8644 6.13831 20.305 6.13831 19.5839V5.96152C6.13831 5.39773 6.33362 4.92052 6.72424 4.5299C7.11486 4.13928 7.59206 3.94397 8.15586 3.94397H18.6295C19.1933 3.94397 19.6705 4.13928 20.0611 4.5299C20.4518 4.92052 20.6471 5.39773 20.6471 5.96152V19.5839C20.6471 20.305 20.3444 20.8644 19.7391 21.2621C19.1339 21.6598 18.495 21.7149 17.8226 21.4273L13.3927 19.5258Z" fill="#235C95"/>
</g>
</svg>
