<svg width="25" height="25" viewBox="0 0 25 25" fill="none" xmlns="http://www.w3.org/2000/svg">
<mask id="mask0_131_2587" style="mask-type:alpha" maskUnits="userSpaceOnUse" x="0" y="0" width="25" height="25">
<rect x="0.5" y="0.0377197" width="24" height="24" fill="#D9D9D9"/>
</mask>
<g mask="url(#mask0_131_2587)">
<path d="M19.9402 20.5377C18.0557 20.5377 16.1625 20.0996 14.2605 19.2232C12.3587 18.3469 10.6097 17.1107 9.0135 15.5147C7.42383 13.9186 6.19083 12.1711 5.3145 10.2722C4.43817 8.37355 4 6.48197 4 4.59747C4 4.29747 4.1 4.0458 4.3 3.84247C4.5 3.6393 4.75 3.53772 5.05 3.53772H8.3115C8.564 3.53772 8.78675 3.62014 8.97975 3.78497C9.17275 3.94964 9.2955 4.15314 9.348 4.39547L9.92125 7.33772C9.96092 7.61072 9.95258 7.8453 9.89625 8.04147C9.83975 8.23764 9.73842 8.40239 9.59225 8.53572L7.28275 10.784C7.65442 11.4646 8.07908 12.1086 8.55675 12.7157C9.03425 13.3227 9.55125 13.9025 10.1077 14.455C10.6564 15.0038 11.2397 15.5135 11.8577 15.984C12.4757 16.4545 13.1431 16.8923 13.8598 17.2975L16.1038 15.034C16.2603 14.8711 16.4498 14.757 16.6723 14.6915C16.8946 14.6261 17.1257 14.6101 17.3655 14.6435L20.1423 15.209C20.3948 15.2756 20.6008 15.4045 20.7605 15.5955C20.9202 15.7865 21 16.0031 21 16.2455V19.4877C21 19.7877 20.8984 20.0377 20.6952 20.2377C20.4919 20.4377 20.2402 20.5377 19.9402 20.5377Z" fill="#F8FAFA"/>
</g>
</svg>
