<svg width="25" height="28" viewBox="0 0 25 28" fill="none" xmlns="http://www.w3.org/2000/svg">
<mask id="mask0_13_3247" style="mask-type:alpha" maskUnits="userSpaceOnUse" x="0" y="0" width="25" height="28">
<rect x="0.214844" y="0.502441" width="24" height="26.7854" fill="#D9D9D9"/>
</mask>
<g mask="url(#mask0_13_3247)">
<path d="M7.33048 19.6041C7.07981 19.6041 6.86964 19.5095 6.69998 19.3203C6.53048 19.1311 6.44573 18.8967 6.44573 18.6169V16.9428H18.8207L19.138 17.2969V7.19881H20.638C20.8886 7.19881 21.0987 7.29339 21.2682 7.48256C21.4379 7.67192 21.5227 7.90639 21.5227 8.18596V21.1152C21.5227 21.565 21.3377 21.8774 20.9677 22.0524C20.5979 22.2275 20.2706 22.1561 19.986 21.8384L17.9842 19.6041H7.33048ZM6.44573 14.7107L4.44398 16.9451C4.15931 17.2626 3.83206 17.3339 3.46223 17.1591C3.09223 16.984 2.90723 16.6715 2.90723 16.2216V4.28004C2.90723 4.00028 2.99206 3.76572 3.16173 3.57636C3.33123 3.38719 3.54131 3.2926 3.79198 3.2926H16.2535C16.5041 3.2926 16.7142 3.38719 16.8837 3.57636C17.0532 3.76572 17.138 4.00028 17.138 4.28004V13.7236C17.138 14.0031 17.0532 14.2376 16.8837 14.427C16.7142 14.6161 16.5041 14.7107 16.2535 14.7107H6.44573ZM15.638 13.0366V4.96669H4.40723V13.8095L5.09973 13.0366H15.638Z" fill="#333333"/>
</g>
</svg>
