<svg width="25" height="24" viewBox="0 0 25 24" fill="none" xmlns="http://www.w3.org/2000/svg">
<mask id="mask0_131_2126" style="mask-type:alpha" maskUnits="userSpaceOnUse" x="0" y="0" width="25" height="24">
<rect x="0.5" width="24" height="24" fill="#D9D9D9"/>
</mask>
<g mask="url(#mask0_131_2126)">
<path d="M12.5 14.2635L14.275 15.3462C14.4392 15.4501 14.6048 15.4443 14.772 15.3288C14.9393 15.2134 15.0013 15.057 14.9578 14.8595L14.4865 12.8287L16.0713 11.4595C16.2251 11.3223 16.2703 11.1608 16.2068 10.975C16.1433 10.7892 16.0077 10.6879 15.8 10.6712L13.7288 10.4962L12.9115 8.5905C12.8347 8.40967 12.6975 8.31925 12.5 8.31925C12.3025 8.31925 12.1653 8.40967 12.0885 8.5905L11.2713 10.4962L9.2 10.6712C8.99233 10.6879 8.85675 10.7892 8.79325 10.975C8.72975 11.1608 8.77492 11.3223 8.92875 11.4595L10.5135 12.8287L10.0423 14.8595C9.99875 15.057 10.0607 15.2134 10.228 15.3288C10.3952 15.4443 10.5608 15.4501 10.725 15.3462L12.5 14.2635ZM9.3615 19.5H6.80775C6.30908 19.5 5.88308 19.3234 5.52975 18.9703C5.17658 18.6169 5 18.1909 5 17.6923V15.1385L3.14225 13.2653C2.97175 13.0846 2.84292 12.8847 2.75575 12.6655C2.66858 12.4462 2.625 12.2243 2.625 12C2.625 11.7757 2.66858 11.5538 2.75575 11.3345C2.84292 11.1153 2.97175 10.9154 3.14225 10.7348L5 8.8615V6.30775C5 5.80908 5.17658 5.38308 5.52975 5.02975C5.88308 4.67658 6.30908 4.5 6.80775 4.5H9.3615L11.2348 2.64225C11.4154 2.47175 11.6153 2.34292 11.8345 2.25575C12.0538 2.16858 12.2757 2.125 12.5 2.125C12.7243 2.125 12.9462 2.16858 13.1655 2.25575C13.3847 2.34292 13.5846 2.47175 13.7653 2.64225L15.6385 4.5H18.1923C18.6909 4.5 19.1169 4.67658 19.4703 5.02975C19.8234 5.38308 20 5.80908 20 6.30775V8.8615L21.8578 10.7348C22.0283 10.9154 22.1571 11.1153 22.2443 11.3345C22.3314 11.5538 22.375 11.7757 22.375 12C22.375 12.2243 22.3314 12.4462 22.2443 12.6655C22.1571 12.8847 22.0283 13.0846 21.8578 13.2653L20 15.1385V17.6923C20 18.1909 19.8234 18.6169 19.4703 18.9703C19.1169 19.3234 18.6909 19.5 18.1923 19.5H15.6385L13.7653 21.3577C13.5846 21.5282 13.3847 21.6571 13.1655 21.7443C12.9462 21.8314 12.7243 21.875 12.5 21.875C12.2757 21.875 12.0538 21.8314 11.8345 21.7443C11.6153 21.6571 11.4154 21.5282 11.2348 21.3577L9.3615 19.5ZM10 18L12.2788 20.2788C12.3364 20.3364 12.4102 20.3652 12.5 20.3652C12.5898 20.3652 12.6636 20.3364 12.7213 20.2788L15 18H18.1923C18.2821 18 18.3558 17.9712 18.4135 17.9135C18.4712 17.8558 18.5 17.7821 18.5 17.6923V14.5L20.7788 12.2213C20.8364 12.1636 20.8653 12.0898 20.8653 12C20.8653 11.9102 20.8364 11.8364 20.7788 11.7788L18.5 9.5V6.30775C18.5 6.21792 18.4712 6.14417 18.4135 6.0865C18.3558 6.02883 18.2821 6 18.1923 6H15L12.7213 3.72125C12.6636 3.66358 12.5898 3.63475 12.5 3.63475C12.4102 3.63475 12.3364 3.66358 12.2788 3.72125L10 6H6.80775C6.71792 6 6.64417 6.02883 6.5865 6.0865C6.52883 6.14417 6.5 6.21792 6.5 6.30775V9.5L4.22125 11.7788C4.16358 11.8364 4.13475 11.9102 4.13475 12C4.13475 12.0898 4.16358 12.1636 4.22125 12.2213L6.5 14.5V17.6923C6.5 17.7821 6.52883 17.8558 6.5865 17.9135C6.64417 17.9712 6.71792 18 6.80775 18H10Z" fill="#333333"/>
</g>
</svg>
