<svg width="27" height="27" viewBox="0 0 27 27" fill="none" xmlns="http://www.w3.org/2000/svg">
<mask id="mask0_131_2297" style="mask-type:alpha" maskUnits="userSpaceOnUse" x="0" y="0" width="27" height="27">
<rect y="0.0377197" width="26.7854" height="26.7854" fill="#D9D9D9"/>
</mask>
<g mask="url(#mask0_131_2297)">
<path d="M3.9062 26.8232C3.44974 26.8232 3.0566 26.66 2.72681 26.3338C2.39701 26.0075 2.23212 25.6126 2.23212 25.1491C2.23212 24.6926 2.39701 24.2995 2.72681 23.9697C3.0566 23.6399 3.44974 23.475 3.9062 23.475H22.8792C23.3357 23.475 23.7288 23.6381 24.0586 23.9644C24.3884 24.2906 24.5533 24.6855 24.5533 25.1491C24.5533 25.6055 24.3884 25.9987 24.0586 26.3285C23.7288 26.6583 23.3357 26.8232 22.8792 26.8232H3.9062ZM6.69635 18.3562H8.07635L17.3396 9.10993L16.6379 8.39761L15.9426 7.71291L6.69635 16.9762V18.3562ZM5.02226 19.0214V16.6843C5.02226 16.5499 5.04477 16.4218 5.08978 16.3001C5.13498 16.1785 5.20976 16.0654 5.31411 15.9609L17.533 3.77015C17.6946 3.60851 17.8781 3.48621 18.0835 3.40325C18.2887 3.32029 18.5007 3.27881 18.7196 3.27881C18.9458 3.27881 19.1609 3.32029 19.3647 3.40325C19.5686 3.48621 19.7571 3.61428 19.9303 3.78745L21.2715 5.14597C21.4447 5.30762 21.5699 5.49214 21.6471 5.69954C21.7244 5.90713 21.7631 6.12392 21.7631 6.34992C21.7631 6.55751 21.7244 6.76389 21.6471 6.96905C21.5699 7.17441 21.4447 7.36368 21.2715 7.53685L9.08081 19.7276C8.97627 19.8321 8.86327 19.9086 8.7418 19.9572C8.62015 20.0059 8.49209 20.0303 8.3576 20.0303H6.03118C5.74342 20.0303 5.50338 19.934 5.31104 19.7415C5.11852 19.5492 5.02226 19.3091 5.02226 19.0214ZM17.3396 9.10993L16.6379 8.39761L15.9426 7.71291L17.3396 9.10993Z" fill="#235C95"/>
</g>
</svg>
