<svg width="25" height="26" viewBox="0 0 25 26" fill="none" xmlns="http://www.w3.org/2000/svg">
<mask id="mask0_131_2515" style="mask-type:alpha" maskUnits="userSpaceOnUse" x="0" y="0" width="25" height="26">
<rect y="1.17114" width="24" height="24" transform="rotate(-0.799669 0 1.17114)" fill="#D9D9D9"/>
</mask>
<g mask="url(#mask0_131_2515)">
<path d="M14.9958 9.58572C15.4078 9.98651 15.7288 10.476 15.9587 11.0542C16.1886 11.6325 16.2807 12.215 16.2348 12.8015C16.2375 12.9938 16.1706 13.1576 16.0342 13.2928C15.8976 13.4281 15.7331 13.4971 15.5408 13.4997C15.3485 13.5024 15.1847 13.438 15.0495 13.3066C14.9143 13.1751 14.8454 13.0132 14.8427 12.8209C14.9008 12.3804 14.8588 11.9643 14.7168 11.5726C14.5748 11.181 14.3602 10.8455 14.0729 10.5662C13.7857 10.2868 13.441 10.0765 13.039 9.93531C12.637 9.79408 12.2147 9.7618 11.7721 9.83849C11.5798 9.84767 11.4129 9.78558 11.2714 9.6522C11.1297 9.519 11.0543 9.35629 11.0453 9.16406C11.0361 8.97184 11.0956 8.80491 11.2238 8.66327C11.3521 8.5218 11.5123 8.44656 11.7045 8.43754C12.2855 8.36276 12.8714 8.43051 13.4623 8.64078C14.0531 8.85122 14.5643 9.1662 14.9958 9.58572ZM12.0825 7.00313C11.7274 7.00808 11.3792 7.03028 11.0381 7.06971C10.6969 7.10897 10.3577 7.17071 10.0203 7.25493C9.80812 7.30156 9.61605 7.27383 9.44411 7.17172C9.27217 7.06961 9.15283 6.92092 9.0861 6.72567C9.01911 6.52408 9.03759 6.33122 9.14153 6.14709C9.2453 5.96296 9.39812 5.84764 9.6 5.80116C10.0013 5.69938 10.407 5.62579 10.8173 5.5804C11.2277 5.53483 11.6425 5.50912 12.0616 5.50327C14.21 5.47328 16.1914 6.00402 18.0056 7.09547C19.8197 8.18693 21.2239 9.67839 22.2182 11.5699C22.2867 11.6958 22.3369 11.8229 22.3688 11.9513C22.4008 12.0797 22.4178 12.2157 22.4198 12.3594C22.4218 12.503 22.4112 12.6394 22.388 12.7686C22.3648 12.8978 22.3207 13.0262 22.2558 13.154C21.9585 13.7992 21.5945 14.4021 21.1637 14.9627C20.733 15.5232 20.2574 16.0392 19.737 16.5107C19.5839 16.6514 19.4076 16.7112 19.2079 16.6901C19.0081 16.6692 18.8429 16.5719 18.7123 16.398C18.5817 16.2242 18.5259 16.0365 18.5449 15.835C18.5639 15.6334 18.65 15.4623 18.803 15.3216C19.2486 14.9064 19.6539 14.4536 20.0189 13.9633C20.3839 13.4728 20.6971 12.945 20.9584 12.3798C20.1017 10.7082 18.879 9.38767 17.2903 8.41808C15.7016 7.44849 13.9657 6.97684 12.0825 7.00313ZM12.257 19.5019C10.152 19.5313 8.21484 18.9958 6.44548 17.8954C4.67612 16.7949 3.26141 15.3328 2.20135 13.5089C2.11625 13.3833 2.05342 13.2463 2.01284 13.098C1.97227 12.9499 1.95091 12.7989 1.94877 12.6451C1.94662 12.4913 1.96121 12.3423 1.99253 12.1982C2.02386 12.0543 2.08023 11.9131 2.16164 11.7748C2.52396 11.0902 2.93605 10.4372 3.39792 9.81586C3.8598 9.19468 4.39306 8.63627 4.9977 8.14062L2.70844 5.8991C2.56805 5.75238 2.49734 5.57676 2.49632 5.37226C2.49546 5.16775 2.56644 4.99207 2.70923 4.84523C2.85203 4.69839 3.02667 4.62353 3.23315 4.62065C3.43946 4.61777 3.61604 4.68773 3.76288 4.83053L20.5696 21.1746C20.71 21.3111 20.7858 21.4815 20.797 21.6857C20.8082 21.89 20.7373 22.0709 20.5843 22.2282C20.4415 22.375 20.2669 22.4499 20.0604 22.4528C19.8541 22.4557 19.6775 22.3857 19.5307 22.2429L15.9631 18.8039C15.3765 19.0402 14.7727 19.2134 14.1517 19.3234C13.5308 19.4335 12.8992 19.4929 12.257 19.5019ZM6.0663 9.17955C5.48668 9.64035 4.9672 10.1595 4.50789 10.737C4.04857 11.3146 3.66598 11.9441 3.36013 12.6254C4.21688 14.2969 5.43959 15.6175 7.02828 16.5871C8.61697 17.5567 10.3529 18.0283 12.236 18.0021C12.6655 17.9961 13.0878 17.9613 13.503 17.8979C13.9181 17.8344 14.33 17.7396 14.7386 17.6133L13.4551 16.3349C13.2539 16.4262 13.0525 16.4889 12.851 16.5231C12.6496 16.5574 12.438 16.5761 12.2162 16.5792C11.0816 16.595 10.113 16.2127 9.31038 15.4321C8.50774 14.6516 8.09851 13.694 8.08267 12.5595C8.07957 12.3377 8.09395 12.1256 8.1258 11.9233C8.15764 11.7209 8.21314 11.5178 8.29231 11.3142L6.0663 9.17955Z" fill="#333333"/>
</g>
</svg>
