<svg width="24" height="25" viewBox="0 0 24 25" fill="none" xmlns="http://www.w3.org/2000/svg">
<mask id="mask0_297_1688" style="mask-type:alpha" maskUnits="userSpaceOnUse" x="0" y="0" width="24" height="25">
<rect y="0.0377197" width="24" height="24" fill="#D9D9D9"/>
</mask>
<g mask="url(#mask0_297_1688)">
<path d="M12.0024 15.6147C13.1356 15.6147 14.098 15.2181 14.8897 14.425C15.6814 13.6318 16.0772 12.6686 16.0772 11.5355C16.0772 10.4023 15.6806 9.43989 14.8874 8.64822C14.0943 7.85655 13.1311 7.46072 11.9979 7.46072C10.8648 7.46072 9.90237 7.8573 9.1107 8.65047C8.31903 9.44364 7.9232 10.4068 7.9232 11.54C7.9232 12.6731 8.31978 13.6356 9.11295 14.4272C9.90612 15.2189 10.8693 15.6147 12.0024 15.6147ZM12.0002 14.2377C11.2502 14.2377 10.6127 13.9752 10.0877 13.4502C9.5627 12.9252 9.3002 12.2877 9.3002 11.5377C9.3002 10.7877 9.5627 10.1502 10.0877 9.62522C10.6127 9.10022 11.2502 8.83772 12.0002 8.83772C12.7502 8.83772 13.3877 9.10022 13.9127 9.62522C14.4377 10.1502 14.7002 10.7877 14.7002 11.5377C14.7002 12.2877 14.4377 12.9252 13.9127 13.4502C13.3877 13.9752 12.7502 14.2377 12.0002 14.2377ZM12.0002 18.5377C9.89503 18.5377 7.9697 17.9761 6.2242 16.853C4.4787 15.73 3.08545 14.2525 2.04445 12.4205C1.96112 12.2768 1.9002 12.1321 1.8617 11.9862C1.82337 11.8404 1.8042 11.6907 1.8042 11.5372C1.8042 11.3837 1.82337 11.2342 1.8617 11.0887C1.9002 10.9432 1.96112 10.7986 2.04445 10.655C3.08545 8.82297 4.4787 7.34547 6.2242 6.22247C7.9697 5.0993 9.89503 4.53772 12.0002 4.53772C14.1054 4.53772 16.0307 5.0993 17.7762 6.22247C19.5217 7.34547 20.9149 8.82297 21.9559 10.655C22.0393 10.7986 22.1002 10.9434 22.1387 11.0892C22.177 11.2351 22.1962 11.3847 22.1962 11.5382C22.1962 11.6917 22.177 11.8412 22.1387 11.9867C22.1002 12.1322 22.0393 12.2768 21.9559 12.4205C20.9149 14.2525 19.5217 15.73 17.7762 16.853C16.0307 17.9761 14.1054 18.5377 12.0002 18.5377ZM12.0002 17.0377C13.8835 17.0377 15.6127 16.5419 17.1877 15.5502C18.7627 14.5586 19.9669 13.2211 20.8002 11.5377C19.9669 9.85439 18.7627 8.51689 17.1877 7.52522C15.6127 6.53355 13.8835 6.03772 12.0002 6.03772C10.1169 6.03772 8.3877 6.53355 6.8127 7.52522C5.2377 8.51689 4.03353 9.85439 3.2002 11.5377C4.03353 13.2211 5.2377 14.5586 6.8127 15.5502C8.3877 16.5419 10.1169 17.0377 12.0002 17.0377Z" fill="#999999"/>
</g>
</svg>
