<svg width="20" height="20" viewBox="0 0 20 20" fill="none" xmlns="http://www.w3.org/2000/svg">
<mask id="mask0_234_2636" style="mask-type:alpha" maskUnits="userSpaceOnUse" x="0" y="0" width="20" height="20">
<rect width="20" height="20" fill="#D9D9D9"/>
</mask>
<g mask="url(#mask0_234_2636)">
<path d="M10.2543 16.7917C10.102 16.7917 9.97294 16.7398 9.86725 16.6359C9.76141 16.5321 9.7085 16.4035 9.7085 16.25V12.75C9.7085 12.5966 9.76002 12.468 9.86308 12.3642C9.96614 12.2603 10.0938 12.2084 10.246 12.2084C10.3984 12.2084 10.5274 12.2603 10.6331 12.3642C10.7389 12.468 10.7918 12.5966 10.7918 12.75V13.9584H16.2443C16.3975 13.9584 16.527 14.0099 16.6329 14.113C16.7388 14.216 16.7918 14.3437 16.7918 14.4959C16.7918 14.6482 16.7399 14.7773 16.636 14.883C16.5322 14.9888 16.4036 15.0417 16.2502 15.0417H10.7918V16.25C10.7918 16.4035 10.7403 16.5321 10.6372 16.6359C10.5342 16.7398 10.4066 16.7917 10.2543 16.7917ZM3.75016 15.0417C3.59669 15.0417 3.46808 14.9902 3.36433 14.8871C3.26044 14.7841 3.2085 14.6564 3.2085 14.5042C3.2085 14.3518 3.26044 14.2228 3.36433 14.1171C3.46808 14.0113 3.59669 13.9584 3.75016 13.9584H7.25016C7.40364 13.9584 7.53225 14.0099 7.636 14.113C7.73988 14.216 7.79183 14.3437 7.79183 14.4959C7.79183 14.6482 7.73988 14.7773 7.636 14.883C7.53225 14.9888 7.40364 15.0417 7.25016 15.0417H3.75016ZM6.75433 12.2917C6.60197 12.2917 6.47294 12.2398 6.36725 12.1359C6.26141 12.0321 6.2085 11.9035 6.2085 11.75V10.5417H3.75558C3.60266 10.5417 3.47329 10.4902 3.36745 10.3871C3.26148 10.2841 3.2085 10.1564 3.2085 10.0042C3.2085 9.85185 3.26044 9.72282 3.36433 9.61712C3.46808 9.51129 3.59669 9.45837 3.75016 9.45837H6.2085V8.25004C6.2085 8.09657 6.26002 7.96796 6.36308 7.86421C6.46614 7.76032 6.59377 7.70837 6.746 7.70837C6.89836 7.70837 7.02739 7.76032 7.13308 7.86421C7.23891 7.96796 7.29183 8.09657 7.29183 8.25004V11.75C7.29183 11.9035 7.2403 12.0321 7.13725 12.1359C7.03419 12.2398 6.90655 12.2917 6.75433 12.2917ZM9.75016 10.5417C9.59669 10.5417 9.46808 10.4902 9.36433 10.3871C9.26044 10.2841 9.2085 10.1564 9.2085 10.0042C9.2085 9.85185 9.26044 9.72282 9.36433 9.61712C9.46808 9.51129 9.59669 9.45837 9.75016 9.45837H16.2502C16.4036 9.45837 16.5322 9.5099 16.636 9.61296C16.7399 9.71601 16.7918 9.84365 16.7918 9.99587C16.7918 10.1482 16.7399 10.2773 16.636 10.383C16.5322 10.4888 16.4036 10.5417 16.2502 10.5417H9.75016ZM12.7543 7.79171C12.602 7.79171 12.4729 7.73976 12.3672 7.63587C12.2614 7.53212 12.2085 7.40351 12.2085 7.25004V3.75004C12.2085 3.59657 12.26 3.46796 12.3631 3.36421C12.4661 3.26032 12.5938 3.20837 12.746 3.20837C12.8984 3.20837 13.0274 3.26032 13.1331 3.36421C13.2389 3.46796 13.2918 3.59657 13.2918 3.75004V4.95837H16.2502C16.4036 4.95837 16.5322 5.0099 16.636 5.11296C16.7399 5.21601 16.7918 5.34365 16.7918 5.49587C16.7918 5.64824 16.7399 5.77726 16.636 5.88296C16.5322 5.98879 16.4036 6.04171 16.2502 6.04171H13.2918V7.25004C13.2918 7.40351 13.2403 7.53212 13.1372 7.63587C13.0342 7.73976 12.9066 7.79171 12.7543 7.79171ZM3.75016 6.04171C3.59669 6.04171 3.46808 5.99018 3.36433 5.88712C3.26044 5.78407 3.2085 5.65643 3.2085 5.50421C3.2085 5.35185 3.26044 5.22282 3.36433 5.11712C3.46808 5.01129 3.59669 4.95837 3.75016 4.95837H10.2502C10.4036 4.95837 10.5322 5.0099 10.636 5.11296C10.7399 5.21601 10.7918 5.34365 10.7918 5.49587C10.7918 5.64824 10.7399 5.77726 10.636 5.88296C10.5322 5.98879 10.4036 6.04171 10.2502 6.04171H3.75016Z" fill="#333333"/>
</g>
</svg>
