<svg width="25" height="26" viewBox="0 0 25 26" fill="none" xmlns="http://www.w3.org/2000/svg">
<mask id="mask0_131_1312" style="mask-type:alpha" maskUnits="userSpaceOnUse" x="0" y="0" width="25" height="26">
<rect y="1.17114" width="24" height="24" transform="rotate(-0.799669 0 1.17114)" fill="#D9D9D9"/>
</mask>
<g mask="url(#mask0_131_1312)">
<path d="M12.2989 22.5016C10.9965 22.5197 9.76401 22.2872 8.60132 21.8041C7.43863 21.3209 6.42124 20.6552 5.54915 19.807C4.6769 18.9589 3.98306 17.9605 3.46765 16.8117C2.95223 15.663 2.68543 14.4374 2.66725 13.1351C2.64893 11.8224 2.88138 10.5872 3.36461 9.42972C3.84783 8.27219 4.51357 7.25739 5.36181 6.3853C6.20989 5.51304 7.2083 4.81921 8.35706 4.30379C9.50581 3.78838 10.7314 3.52158 12.0337 3.5034C13.3464 3.48508 14.5816 3.71753 15.7391 4.20076C16.8966 4.68398 17.9114 5.34972 18.7835 6.19796C19.6558 7.04604 20.3496 8.04187 20.8649 9.18545C21.3802 10.329 21.6471 11.5572 21.6654 12.8699C21.6836 14.1723 21.4511 15.4048 20.9679 16.5675C20.4848 17.7302 19.8191 18.7476 18.9708 19.6197C18.1228 20.4919 17.1269 21.1857 15.9834 21.7011C14.8398 22.2164 13.6116 22.4832 12.2989 22.5016ZM12.2777 20.9804C12.7785 20.2966 13.1985 19.608 13.5375 18.9147C13.8765 18.2214 14.15 17.4649 14.3579 16.6452L10.0773 16.705C10.3212 17.544 10.6191 18.3053 10.971 18.989C11.3228 19.6726 11.7583 20.3365 12.2777 20.9804ZM10.3375 20.7325C9.94656 20.1879 9.59362 19.5675 9.27871 18.8713C8.96379 18.175 8.71662 17.4601 8.5372 16.7265L5.14528 16.7738C5.68789 17.8049 6.40833 18.6674 7.3066 19.3614C8.20487 20.0553 9.21518 20.5123 10.3375 20.7325ZM14.2102 20.6784C15.3259 20.427 16.3231 19.942 17.2016 19.2233C18.0802 18.5045 18.7763 17.6222 19.2899 16.5764L15.898 16.6237C15.707 17.3688 15.4639 18.0938 15.1685 18.7986C14.8733 19.5035 14.5539 20.1301 14.2102 20.6784ZM4.49541 15.2828L8.21254 15.2309C8.14453 14.8601 8.09386 14.4964 8.06055 14.1396C8.0274 13.7831 8.0083 13.4234 8.00323 13.0606C7.99817 12.6978 8.00723 12.3377 8.03041 11.9803C8.05376 11.6228 8.09425 11.2578 8.15189 10.8853L4.43475 10.9372C4.34333 11.2782 4.2746 11.6323 4.22856 11.9997C4.18235 12.367 4.16186 12.7385 4.16711 13.1141C4.17235 13.4898 4.2032 13.8605 4.25964 14.2264C4.31592 14.5924 4.39451 14.9445 4.49541 15.2828ZM9.71215 15.2099L14.6812 15.1406C14.7386 14.7681 14.7791 14.4063 14.8025 14.0553C14.8258 13.7043 14.8348 13.3409 14.8296 12.9653C14.8243 12.5897 14.8052 12.2267 14.7721 11.8765C14.7389 11.5263 14.6884 11.1658 14.6205 10.795L9.65149 10.8644C9.59402 11.2369 9.55356 11.5986 9.53013 11.9497C9.50686 12.3007 9.49784 12.664 9.50309 13.0396C9.50833 13.4153 9.52748 13.7782 9.56054 14.1285C9.59376 14.4787 9.6443 14.8392 9.71215 15.2099ZM16.1808 15.1197L19.8979 15.0678C19.9893 14.7268 20.0581 14.3726 20.1041 14.0053C20.1503 13.6379 20.1708 13.2665 20.1655 12.8908C20.1603 12.5152 20.1295 12.1444 20.073 11.7785C20.0167 11.4126 19.9382 11.0605 19.8373 10.7222L16.1201 10.7741C16.1881 11.1448 16.2388 11.5086 16.2721 11.8653C16.3053 12.2219 16.3244 12.5816 16.3294 12.9444C16.3345 13.3072 16.3254 13.6672 16.3022 14.0246C16.2789 14.3821 16.2384 14.7471 16.1808 15.1197ZM15.7955 9.27846L19.1874 9.23112C18.6383 8.18735 17.9226 7.32475 17.0406 6.64333C16.1585 5.96207 15.1433 5.50186 13.995 5.2627C14.3864 5.83929 14.7363 6.47106 15.0445 7.15799C15.353 7.84475 15.6033 8.55157 15.7955 9.27846ZM9.97478 9.35971L14.2554 9.29996C14.0115 8.46728 13.7088 7.70118 13.3472 7.00166C12.9854 6.30214 12.5547 5.64309 12.055 5.0245C11.5728 5.65679 11.1606 6.32761 10.8184 7.03696C10.4765 7.7463 10.1953 8.52055 9.97478 9.35971ZM5.04276 9.42855L8.43467 9.3812C8.60648 8.64923 8.83696 7.9357 9.12612 7.24059C9.41511 6.54533 9.74719 5.90405 10.1224 5.31675C8.9747 5.58796 7.9712 6.07802 7.11184 6.78691C6.25231 7.49564 5.56262 8.37619 5.04276 9.42855Z" fill="#333333"/>
</g>
</svg>
