<svg width="33" height="32" viewBox="0 0 33 32" fill="none" xmlns="http://www.w3.org/2000/svg">
<path d="M27.443 14.0943H26.544V14.048H16.4994V18.5122H22.8069C21.8867 21.1109 19.414 22.9764 16.4994 22.9764C12.8014 22.9764 9.8031 19.9781 9.8031 16.2801C9.8031 12.582 12.8014 9.58374 16.4994 9.58374C18.2065 9.58374 19.7595 10.2277 20.9419 11.2796L24.0987 8.12282C22.1054 6.26514 19.4391 5.11951 16.4994 5.11951C10.336 5.11951 5.33887 10.1167 5.33887 16.2801C5.33887 22.4435 10.336 27.4407 16.4994 27.4407C22.6629 27.4407 27.66 22.4435 27.66 16.2801C27.66 15.5318 27.583 14.8013 27.443 14.0943Z" fill="#FFC107"/>
<path d="M6.62598 11.0854L10.2928 13.7745C11.285 11.3181 13.6878 9.58374 16.4997 9.58374C18.2068 9.58374 19.7597 10.2277 20.9422 11.2796L24.099 8.12282C22.1057 6.26514 19.4394 5.11951 16.4997 5.11951C12.213 5.11951 8.49537 7.53968 6.62598 11.0854Z" fill="#FF3D00"/>
<path d="M16.4992 27.4407C19.382 27.4407 22.0013 26.3375 23.9818 24.5434L20.5276 21.6204C19.4071 22.4692 18.0142 22.9765 16.4992 22.9765C13.5963 22.9765 11.1315 21.1255 10.2029 18.5424L6.56348 21.3465C8.41055 24.9608 12.1616 27.4407 16.4992 27.4407Z" fill="#4CAF50"/>
<path d="M27.4425 14.0943H26.5435V14.048H16.499V18.5122H22.8064C22.3645 19.7605 21.5615 20.837 20.5258 21.621C20.5263 21.6204 20.5269 21.6204 20.5274 21.6199L23.9816 24.5428C23.7372 24.7649 27.6596 21.8604 27.6596 16.2801C27.6596 15.5318 27.5826 14.8013 27.4425 14.0943Z" fill="#235C95"/>
</svg>
