<svg width="25" height="26" viewBox="0 0 25 26" fill="none" xmlns="http://www.w3.org/2000/svg">
<mask id="mask0_131_1485" style="mask-type:alpha" maskUnits="userSpaceOnUse" x="0" y="0" width="25" height="26">
<rect y="1.17114" width="24" height="24" transform="rotate(-0.799669 0 1.17114)" fill="#D9D9D9"/>
</mask>
<g mask="url(#mask0_131_1485)">
<path d="M12.2329 17.752C12.4455 17.749 12.6226 17.6746 12.7641 17.5288C12.9057 17.3832 12.975 17.2041 12.9721 16.9916L12.9128 12.742C12.9098 12.5296 12.8354 12.3524 12.6896 12.2106C12.5438 12.069 12.3646 11.9996 12.1521 12.0026C11.9395 12.0055 11.7624 12.0799 11.6209 12.2255C11.4793 12.3713 11.4099 12.5505 11.4129 12.763L11.4722 17.0126C11.4752 17.225 11.5496 17.4021 11.6954 17.5437C11.8412 17.6856 12.0204 17.755 12.2329 17.752ZM12.1285 10.2912C12.3573 10.288 12.548 10.208 12.7007 10.051C12.8533 9.894 12.9281 9.70111 12.9249 9.47229C12.9217 9.24348 12.8416 9.05275 12.6846 8.90009C12.5276 8.7476 12.3348 8.67295 12.1059 8.67615C11.8771 8.67934 11.6864 8.75934 11.5337 8.91616C11.3811 9.07314 11.3063 9.26603 11.3095 9.49484C11.3127 9.72365 11.3928 9.91439 11.5498 10.067C11.7068 10.2197 11.8997 10.2944 12.1285 10.2912ZM12.3007 22.5015C10.9868 22.5199 9.74835 22.2878 8.58534 21.8053C7.42232 21.3228 6.40731 20.6602 5.54029 19.8174C4.67328 18.9745 3.98223 17.9788 3.46715 16.8303C2.95224 15.6817 2.68561 14.4505 2.66728 13.1368C2.64894 11.8229 2.88101 10.5845 3.36349 9.42148C3.84598 8.25847 4.50862 7.24345 5.35144 6.37644C6.19425 5.50943 7.18996 4.81838 8.33855 4.3033C9.48714 3.78839 10.7183 3.52176 12.032 3.50342C13.3459 3.48509 14.5843 3.71716 15.7473 4.19964C16.9103 4.68212 17.9253 5.34477 18.7924 6.18759C19.6594 7.0304 20.3504 8.0261 20.8655 9.17469C21.3804 10.3233 21.647 11.5544 21.6654 12.8681C21.6837 14.182 21.4516 15.4205 20.9692 16.5835C20.4867 17.7465 19.824 18.7615 18.9812 19.6285C18.1384 20.4955 17.1427 21.1866 15.9941 21.7017C14.8455 22.2166 13.6144 22.4832 12.3007 22.5015ZM12.278 21.0017C14.5111 20.9705 16.3918 20.1692 17.92 18.5977C19.4482 17.0262 20.1967 15.1239 20.1655 12.8908C20.1344 10.6577 19.3331 8.77704 17.7616 7.24883C16.1901 5.72061 14.2878 4.97209 12.0547 5.00325C9.82156 5.03442 7.9409 5.83575 6.41268 7.40723C4.88446 8.97871 4.13594 10.881 4.16711 13.1141C4.19828 15.3472 4.9996 17.2279 6.57108 18.7561C8.14257 20.2843 10.0449 21.0329 12.278 21.0017Z" fill="#333333"/>
</g>
</svg>
