<svg width="25" height="25" viewBox="0 0 25 25" fill="none" xmlns="http://www.w3.org/2000/svg">
<mask id="mask0_131_874" style="mask-type:alpha" maskUnits="userSpaceOnUse" x="0" y="0" width="25" height="25">
<rect y="0.956543" width="24" height="24" transform="rotate(-0.799669 0 0.956543)" fill="#D9D9D9"/>
</mask>
<g mask="url(#mask0_131_874)">
<path d="M13.9406 14.5134C14.1534 14.5104 14.3306 14.4361 14.472 14.2904C14.6137 14.1449 14.683 13.9658 14.6801 13.753L14.6487 11.5032L16.8984 11.4718C17.1113 11.4688 17.2884 11.3945 17.4299 11.2488C17.5715 11.1033 17.6409 10.9242 17.6379 10.7114C17.6349 10.4986 17.5606 10.3214 17.415 10.1799C17.2695 10.0383 17.0903 9.96895 16.8775 9.97192L14.6277 10.0033L14.5963 7.75354C14.5934 7.54073 14.519 7.36358 14.3734 7.2221C14.2279 7.08045 14.0487 7.01111 13.8359 7.01408C13.6231 7.01705 13.446 7.09137 13.3045 7.23702C13.1628 7.38251 13.0935 7.56166 13.0965 7.77448L13.1279 10.0243L10.8781 10.0557C10.6653 10.0586 10.4881 10.1329 10.3467 10.2786C10.205 10.4241 10.1357 10.6032 10.1386 10.8161C10.1416 11.0289 10.2159 11.206 10.3616 11.3475C10.5071 11.4891 10.6862 11.5585 10.899 11.5555L13.1488 11.5241L13.1802 13.7739C13.1832 13.9867 13.2575 14.1639 13.4032 14.3053C13.5486 14.447 13.7278 14.5163 13.9406 14.5134ZM8.30125 18.3424C7.79613 18.3495 7.36615 18.1805 7.01129 17.8354C6.65644 17.4903 6.47549 17.0652 6.46844 16.5601L6.30956 5.1767C6.30251 4.67158 6.47152 4.24159 6.8166 3.88674C7.16168 3.53189 7.58678 3.35094 8.0919 3.34389L19.4753 3.18501C19.9804 3.17795 20.4104 3.34697 20.7652 3.69205C21.1201 4.03713 21.301 4.46223 21.3081 4.96735L21.467 16.3507C21.474 16.8559 21.305 17.2858 20.9599 17.6407C20.6149 17.9955 20.1898 18.1765 19.6846 18.1835L8.30125 18.3424ZM8.28031 16.8426L19.6637 16.6837C19.7407 16.6826 19.8107 16.6496 19.8738 16.5845C19.9371 16.5196 19.9682 16.4487 19.9671 16.3717L19.8082 4.98828C19.8072 4.91129 19.7741 4.84125 19.7091 4.77815C19.6442 4.71488 19.5732 4.68378 19.4962 4.68486L8.11284 4.84375C8.03584 4.84482 7.9658 4.87788 7.9027 4.94294C7.83943 5.00783 7.80834 5.07877 7.80941 5.15576L7.9683 16.5392C7.96937 16.6161 8.00244 16.6862 8.06749 16.7493C8.13238 16.8126 8.20332 16.8437 8.28031 16.8426ZM4.85044 21.8909C4.34532 21.898 3.91533 21.729 3.56048 21.3839C3.20563 21.0388 3.02468 20.6137 3.01763 20.1086L2.84828 7.97528C2.84531 7.76246 2.91465 7.58323 3.05629 7.43757C3.19778 7.29208 3.37492 7.21785 3.58774 7.21488C3.80055 7.21191 3.97978 7.28117 4.12544 7.42265C4.27093 7.5643 4.34516 7.74153 4.34813 7.95434L4.51749 20.0877C4.51856 20.1647 4.55162 20.2347 4.61668 20.2978C4.68157 20.3611 4.75251 20.3922 4.8295 20.3911L16.9628 20.2217C17.1756 20.2188 17.3549 20.288 17.5005 20.4295C17.646 20.5711 17.7202 20.7484 17.7232 20.9612C17.7262 21.174 17.6569 21.3532 17.5154 21.4986C17.3738 21.6443 17.1966 21.7186 16.9838 21.7216L4.85044 21.8909Z" fill="#333333"/>
</g>
</svg>
