<svg width="25" height="25" viewBox="0 0 25 25" fill="none" xmlns="http://www.w3.org/2000/svg">
<mask id="mask0_131_983" style="mask-type:alpha" maskUnits="userSpaceOnUse" x="0" y="0" width="25" height="25">
<rect y="0.956543" width="24" height="24" transform="rotate(-0.799669 0 0.956543)" fill="#D9D9D9"/>
</mask>
<g mask="url(#mask0_131_983)">
<path d="M5.59329 21.3805C5.08818 21.3875 4.65819 21.2185 4.30334 20.8734C3.94849 20.5283 3.76754 20.1032 3.76049 19.5981L3.57369 6.21492C3.56664 5.7098 3.73566 5.27982 4.08074 4.92497C4.42582 4.57012 4.85092 4.38917 5.35604 4.38212L11.3075 4.29905C11.5201 4.29608 11.6993 4.36542 11.8449 4.50707C11.9904 4.64855 12.0646 4.8257 12.0676 5.03851C12.0706 5.25133 12.0013 5.43048 11.8598 5.57597C11.7182 5.72162 11.541 5.79594 11.3284 5.7989L5.37697 5.88197C5.29998 5.88305 5.22993 5.91611 5.16683 5.98116C5.10357 6.04605 5.07247 6.117 5.07355 6.19399L5.26035 19.5772C5.26142 19.6542 5.29448 19.7242 5.35954 19.7873C5.42443 19.8506 5.49537 19.8817 5.57236 19.8806L11.5238 19.7975C11.7364 19.7946 11.9156 19.8639 12.0612 20.0056C12.2067 20.147 12.281 20.3242 12.2839 20.537C12.2869 20.7498 12.2176 20.929 12.0762 21.0745C11.9345 21.2201 11.7574 21.2944 11.5447 21.2974L5.59329 21.3805ZM17.7934 13.4594L10.0232 13.5679C9.81038 13.5708 9.63114 13.5015 9.48549 13.3599C9.34 13.2184 9.26577 13.0412 9.2628 12.8284C9.25983 12.6156 9.32908 12.4365 9.47057 12.291C9.61221 12.1453 9.78944 12.071 10.0023 12.068L17.7725 11.9596L15.8229 10.0636C15.6824 9.92704 15.6092 9.75913 15.6033 9.55986C15.5974 9.36059 15.6657 9.18237 15.8084 9.02519C15.951 8.86802 16.1255 8.78541 16.3319 8.77736C16.5382 8.76948 16.72 8.84195 16.8773 8.99477L20.0144 12.0455C20.1976 12.2238 20.2909 12.4335 20.2942 12.6744C20.2976 12.9154 20.2102 13.1276 20.0321 13.3109L16.9813 16.448C16.8347 16.5988 16.6592 16.6746 16.4547 16.6754C16.2502 16.6764 16.0693 16.6005 15.912 16.4475C15.765 16.2943 15.6927 16.1172 15.695 15.9159C15.6972 15.7146 15.7698 15.5405 15.9127 15.3936L17.7934 13.4594Z" fill="#235C95"/>
</g>
</svg>
