<svg width="24" height="25" viewBox="0 0 24 25" fill="none" xmlns="http://www.w3.org/2000/svg">
<mask id="mask0_131_444" style="mask-type:alpha" maskUnits="userSpaceOnUse" x="0" y="0" width="24" height="25">
<rect y="0.0377197" width="24" height="24" fill="#D9D9D9"/>
</mask>
<g mask="url(#mask0_131_444)">
<path d="M4.30775 19.5377C3.80258 19.5377 3.375 19.3627 3.025 19.0127C2.675 18.6627 2.5 18.2351 2.5 17.73V6.34547C2.5 5.8403 2.675 5.41272 3.025 5.06272C3.375 4.71272 3.80258 4.53772 4.30775 4.53772H19.6923C20.1974 4.53772 20.625 4.71272 20.975 5.06272C21.325 5.41272 21.5 5.8403 21.5 6.34547V17.73C21.5 18.2351 21.325 18.6627 20.975 19.0127C20.625 19.3627 20.1974 19.5377 19.6923 19.5377H4.30775ZM20 7.47997L12.4865 12.2897C12.4097 12.3332 12.3302 12.3675 12.248 12.3925C12.166 12.4175 12.0833 12.43 12 12.43C11.9167 12.43 11.834 12.4175 11.752 12.3925C11.6698 12.3675 11.5903 12.3332 11.5135 12.2897L4 7.47997V17.73C4 17.8198 4.02883 17.8936 4.0865 17.9512C4.14417 18.0089 4.21792 18.0377 4.30775 18.0377H19.6923C19.7821 18.0377 19.8558 18.0089 19.9135 17.9512C19.9712 17.8936 20 17.8198 20 17.73V7.47997ZM12 11.0377L19.8463 6.03772H4.15375L12 11.0377ZM4 7.71072V6.56747V6.59722V6.56547V7.71072Z" fill="#F8FAFA"/>
</g>
</svg>
