<svg width="25" height="24" viewBox="0 0 25 24" fill="none" xmlns="http://www.w3.org/2000/svg">
<mask id="mask0_131_266" style="mask-type:alpha" maskUnits="userSpaceOnUse" x="0" y="0" width="25" height="24">
<rect x="0.5" width="24" height="24" fill="#D9D9D9"/>
</mask>
<g mask="url(#mask0_131_266)">
<path fill-rule="evenodd" clip-rule="evenodd" d="M7.72061 15.7125C7.91227 15.9042 8.14977 16 8.43311 16H13.4331C13.7164 16 13.9539 15.9042 14.1456 15.7125C14.3373 15.5208 14.4331 15.2833 14.4331 15C14.4331 14.7167 14.3373 14.4792 14.1456 14.2875C13.9539 14.0958 13.7164 14 13.4331 14H8.43311C8.14977 14 7.91227 14.0958 7.72061 14.2875C7.52894 14.4792 7.43311 14.7167 7.43311 15C7.43311 15.2833 7.52894 15.5208 7.72061 15.7125ZM7.72061 11.7125C7.91227 11.9042 8.14977 12 8.43311 12H17.4331C17.7164 12 17.9539 11.9042 18.1456 11.7125C18.3373 11.5208 18.4331 11.2833 18.4331 11C18.4331 10.7167 18.3373 10.4792 18.1456 10.2875C17.9539 10.0958 17.7164 10 17.4331 10H8.43311C8.14977 10 7.91227 10.0958 7.72061 10.2875C7.52894 10.4792 7.43311 10.7167 7.43311 11C7.43311 11.2833 7.52894 11.5208 7.72061 11.7125ZM7.72061 7.7125C7.91227 7.90417 8.14977 8 8.43311 8H17.4331C17.7164 8 17.9539 7.90417 18.1456 7.7125C18.3373 7.52083 18.4331 7.28333 18.4331 7C18.4331 6.71667 18.3373 6.47917 18.1456 6.2875C17.9539 6.09583 17.7164 6 17.4331 6H8.43311C8.14977 6 7.91227 6.09583 7.72061 6.2875C7.52894 6.47917 7.43311 6.71667 7.43311 7C7.43311 7.28333 7.52894 7.52083 7.72061 7.7125Z" fill="#333333"/>
</g>
</svg>
