<svg width="27" height="28" viewBox="0 0 27 28" fill="none" xmlns="http://www.w3.org/2000/svg">
<mask id="mask0_13_3248" style="mask-type:alpha" maskUnits="userSpaceOnUse" x="0" y="0" width="27" height="28">
<rect x="0.214844" y="0.502441" width="26.7854" height="26.7854" fill="#D9D9D9"/>
</mask>
<g mask="url(#mask0_13_3248)">
<path d="M6.07435 21.5787C5.83719 21.5787 5.63843 21.4985 5.47809 21.3381C5.31757 21.1776 5.2373 20.9787 5.2373 20.7413C5.2373 20.5042 5.31757 20.3054 5.47809 20.1451C5.63843 19.9849 5.83719 19.9048 6.07435 19.9048H7.25486V11.5771C7.25486 10.0762 7.71812 8.7491 8.64463 7.59584C9.57096 6.44258 10.7603 5.70496 12.2127 5.38298V4.68768C12.2127 4.30022 12.3482 3.97079 12.6192 3.69941C12.8902 3.4282 13.2193 3.2926 13.6063 3.2926C13.9936 3.2926 14.3231 3.4282 14.5949 3.69941C14.8668 3.97079 15.0028 4.30022 15.0028 4.68768V5.38298C16.4552 5.70496 17.6445 6.44258 18.5709 7.59584C19.4974 8.7491 19.9606 10.0762 19.9606 11.5771V19.9048H21.1411C21.3783 19.9048 21.577 19.985 21.7374 20.1454C21.8979 20.3059 21.9782 20.5048 21.9782 20.7422C21.9782 20.9793 21.8979 21.1781 21.7374 21.3384C21.577 21.4986 21.3783 21.5787 21.1411 21.5787H6.07435ZM13.6058 24.7123C13.0505 24.7123 12.5759 24.5147 12.1817 24.1196C11.7874 23.7246 11.5902 23.2496 11.5902 22.6947H15.6253C15.6253 23.2514 15.4276 23.7269 15.0321 24.121C14.6367 24.5152 14.1612 24.7123 13.6058 24.7123ZM8.92895 19.9048H18.2865V11.5771C18.2865 10.2851 17.8298 9.18232 16.9163 8.26883C16.0026 7.35515 14.8998 6.89831 13.6077 6.89831C12.3157 6.89831 11.2129 7.35515 10.2992 8.26883C9.38569 9.18232 8.92895 10.2851 8.92895 11.5771V19.9048Z" fill="#333333"/>
</g>
</svg>
