<svg width="29" height="29" viewBox="0 0 29 29" fill="none" xmlns="http://www.w3.org/2000/svg">
<path d="M14.5 24.28C20.0228 24.28 24.5 19.8029 24.5 14.28C24.5 8.75718 20.0228 4.28003 14.5 4.28003C8.97715 4.28003 4.5 8.75718 4.5 14.28C4.5 19.8029 8.97715 24.28 14.5 24.28Z" fill="#4CAF50"/>
<path opacity="0.2" d="M13.5625 12.1863C13.4375 10.6863 11.875 9.96753 11.8125 9.93628C11.7187 9.90503 11.6563 9.90503 11.5938 9.90503C9.78125 10.2175 9.53125 11.2488 9.5 11.3113V11.4988C11.6562 18.1863 16.125 19.405 17.5938 19.8113C17.7188 19.8425 17.8125 19.8738 17.875 19.905C17.9062 19.905 17.9375 19.9363 17.9688 19.9363C18.0312 19.9363 18.0625 19.9363 18.125 19.905C18.1562 19.8738 19.2188 19.3738 19.5 17.7488C19.5 17.6863 19.5 17.5925 19.4688 17.53C19.4375 17.4988 18.875 16.4363 17.3437 16.0613C17.25 16.03 17.125 16.0613 17.0312 16.1238C16.5312 16.53 15.875 16.9675 15.5938 17.03C13.6562 16.0925 12.5625 14.2488 12.5313 13.905C12.5 13.7175 12.9375 13.03 13.4688 12.4675C13.5313 12.405 13.5625 12.28 13.5625 12.1863Z" fill="#333333"/>
<path d="M13.5625 11.5613C13.4375 10.0613 11.875 9.34253 11.8125 9.31128C11.7187 9.28003 11.6563 9.28003 11.5938 9.28003C9.78125 9.59253 9.53125 10.6238 9.5 10.6863V10.8738C11.6562 17.5613 16.125 18.78 17.5938 19.1863C17.7188 19.2175 17.8125 19.2488 17.875 19.28C17.9062 19.28 17.9375 19.3113 17.9688 19.3113C18.0312 19.3113 18.0625 19.3113 18.125 19.28C18.1562 19.2488 19.2188 18.7488 19.5 17.1238C19.5 17.0613 19.5 16.9675 19.4688 16.905C19.4375 16.8738 18.875 15.8113 17.3437 15.4363C17.25 15.405 17.125 15.4363 17.0312 15.4988C16.5312 15.905 15.875 16.3425 15.5938 16.405C13.6562 15.4675 12.5625 13.6238 12.5313 13.28C12.5 13.0925 12.9375 12.405 13.4688 11.8425C13.5313 11.78 13.5625 11.655 13.5625 11.5613Z" fill="white"/>
</svg>
