<svg width="24" height="25" viewBox="0 0 24 25" fill="none" xmlns="http://www.w3.org/2000/svg">
<mask id="mask0_131_1360" style="mask-type:alpha" maskUnits="userSpaceOnUse" x="0" y="0" width="24" height="25">
<rect y="0.0375977" width="24" height="24" fill="#D9D9D9"/>
</mask>
<g mask="url(#mask0_131_1360)">
<path d="M7 13.5376V20.0376C7 20.2501 6.92808 20.4282 6.78425 20.5718C6.64042 20.7157 6.46225 20.7876 6.24975 20.7876C6.03708 20.7876 5.859 20.7157 5.7155 20.5718C5.57183 20.4282 5.5 20.2501 5.5 20.0376V5.4416C5.5 5.18543 5.58667 4.97076 5.76 4.7976C5.93317 4.62426 6.14783 4.5376 6.404 4.5376H12.848C13.0615 4.5376 13.2521 4.6046 13.4197 4.7386C13.5872 4.8726 13.6928 5.0466 13.7365 5.2606L13.996 6.5376H18.596C18.8522 6.5376 19.0668 6.62385 19.24 6.79635C19.4133 6.96885 19.5 7.1826 19.5 7.4376V14.6378C19.5 14.8928 19.4133 15.1065 19.24 15.2788C19.0668 15.4513 18.8522 15.5376 18.596 15.5376H14.152C13.9385 15.5376 13.7479 15.4706 13.5803 15.3366C13.4128 15.2026 13.3072 15.0286 13.2635 14.8146L13.004 13.5376H7ZM14.65 14.0376H18V8.0376H13.498C13.2847 8.0376 13.0942 7.9706 12.9265 7.8366C12.7588 7.7026 12.6532 7.5286 12.6095 7.3146L12.35 6.0376H7V12.0376H13.502C13.7153 12.0376 13.9058 12.1046 14.0735 12.2386C14.2412 12.3726 14.3468 12.5466 14.3905 12.7606L14.65 14.0376Z" fill="#333333"/>
</g>
</svg>
