<svg width="23" height="24" viewBox="0 0 23 24" fill="none" xmlns="http://www.w3.org/2000/svg">
<path d="M20.0306 13.4555C20.4194 13.261 20.665 12.8636 20.665 12.4289C20.665 11.9941 20.4194 11.5967 20.0306 11.4023L3.96159 3.36777C3.55448 3.16421 3.06553 3.22046 2.71527 3.51115C2.36502 3.80184 2.21962 4.27204 2.34467 4.7097L3.98436 10.4486C4.12514 10.9413 4.57551 11.2811 5.08798 11.2811L10.335 11.2811C10.9689 11.2811 11.4828 11.7949 11.4828 12.4288C11.4828 13.0628 10.9689 13.5766 10.335 13.5766L5.08798 13.5766C4.57552 13.5766 4.12515 13.9163 3.98436 14.4091L2.34467 20.148C2.21962 20.5857 2.36502 21.0559 2.71527 21.3466C3.06553 21.6373 3.55448 21.6935 3.96159 21.49L20.0306 13.4555Z" fill="white"/>
</svg>
