<svg width="25" height="25" viewBox="0 0 25 25" fill="none" xmlns="http://www.w3.org/2000/svg">
<mask id="mask0_131_1107" style="mask-type:alpha" maskUnits="userSpaceOnUse" x="0" y="0" width="25" height="25">
<rect x="0.5" y="0.0375977" width="24" height="24" fill="#D9D9D9"/>
</mask>
<g mask="url(#mask0_131_1107)">
<path d="M18.5013 21.7876C17.7376 21.7876 17.0882 21.5203 16.553 20.9856C16.0177 20.4508 15.75 19.8014 15.75 19.0376C15.75 18.9128 15.7599 18.7835 15.7797 18.6498C15.7998 18.516 15.8296 18.3927 15.8693 18.2798L8.473 13.9491C8.209 14.2119 7.90842 14.4173 7.57125 14.5653C7.23408 14.7135 6.877 14.7876 6.5 14.7876C5.73617 14.7876 5.08683 14.5203 4.552 13.9858C4.01733 13.4513 3.75 12.8023 3.75 12.0388C3.75 11.2752 4.01733 10.6258 4.552 10.0906C5.08683 9.55526 5.73617 9.2876 6.5 9.2876C6.877 9.2876 7.23408 9.36168 7.57125 9.50985C7.90842 9.65785 8.209 9.86326 8.473 10.1261L15.8693 5.79535C15.8296 5.68251 15.7998 5.55918 15.7797 5.42535C15.7599 5.29168 15.75 5.16243 15.75 5.0376C15.75 4.27376 16.0173 3.62443 16.5518 3.0896C17.0863 2.55493 17.7353 2.2876 18.4988 2.2876C19.2624 2.2876 19.9118 2.55485 20.447 3.08935C20.9823 3.62385 21.25 4.27285 21.25 5.03635C21.25 5.80001 20.9827 6.44943 20.448 6.9846C19.9132 7.51993 19.2638 7.7876 18.5 7.7876C18.123 7.7876 17.7659 7.71351 17.4288 7.56535C17.0916 7.41735 16.791 7.21193 16.527 6.9491L9.13075 11.2798C9.17042 11.3927 9.20025 11.5158 9.22025 11.6491C9.24008 11.7824 9.25 11.9113 9.25 12.0356C9.25 12.1599 9.24008 12.2894 9.22025 12.4241C9.20025 12.5588 9.17042 12.6825 9.13075 12.7953L16.527 17.1261C16.791 16.8633 17.0916 16.6578 17.4288 16.5098C17.7659 16.3617 18.123 16.2876 18.5 16.2876C19.2638 16.2876 19.9132 16.5548 20.448 17.0893C20.9827 17.6238 21.25 18.2728 21.25 19.0363C21.25 19.8 20.9827 20.4494 20.4482 20.9846C19.9137 21.5199 19.2648 21.7876 18.5013 21.7876ZM18.5 6.2876C18.8475 6.2876 19.1427 6.1661 19.3855 5.9231C19.6285 5.68026 19.75 5.3851 19.75 5.0376C19.75 4.6901 19.6285 4.39493 19.3855 4.1521C19.1427 3.9091 18.8475 3.7876 18.5 3.7876C18.1525 3.7876 17.8573 3.9091 17.6145 4.1521C17.3715 4.39493 17.25 4.6901 17.25 5.0376C17.25 5.3851 17.3715 5.68026 17.6145 5.9231C17.8573 6.1661 18.1525 6.2876 18.5 6.2876ZM6.5 13.2876C6.8475 13.2876 7.14267 13.1661 7.3855 12.9231C7.6285 12.6803 7.75 12.3851 7.75 12.0376C7.75 11.6901 7.6285 11.3949 7.3855 11.1521C7.14267 10.9091 6.8475 10.7876 6.5 10.7876C6.1525 10.7876 5.85733 10.9091 5.6145 11.1521C5.3715 11.3949 5.25 11.6901 5.25 12.0376C5.25 12.3851 5.3715 12.6803 5.6145 12.9231C5.85733 13.1661 6.1525 13.2876 6.5 13.2876ZM18.5 20.2876C18.8475 20.2876 19.1427 20.1661 19.3855 19.9231C19.6285 19.6803 19.75 19.3851 19.75 19.0376C19.75 18.6901 19.6285 18.3949 19.3855 18.1521C19.1427 17.9091 18.8475 17.7876 18.5 17.7876C18.1525 17.7876 17.8573 17.9091 17.6145 18.1521C17.3715 18.3949 17.25 18.6901 17.25 19.0376C17.25 19.3851 17.3715 19.6803 17.6145 19.9231C17.8573 20.1661 18.1525 20.2876 18.5 20.2876Z" fill="#333333"/>
</g>
</svg>
