<svg width="25" height="26" viewBox="0 0 25 26" fill="none" xmlns="http://www.w3.org/2000/svg">
<mask id="mask0_131_1291" style="mask-type:alpha" maskUnits="userSpaceOnUse" x="0" y="0" width="25" height="26">
<rect y="1.17114" width="24" height="24" transform="rotate(-0.799669 0 1.17114)" fill="#D9D9D9"/>
</mask>
<g mask="url(#mask0_131_1291)">
<path d="M12.1838 14.2524L14.0203 15.6211C14.1151 15.6967 14.2071 15.6995 14.2965 15.6298C14.3858 15.5599 14.4131 15.4732 14.3784 15.3699L13.6372 13.105L15.5714 11.5491C15.6537 11.4774 15.676 11.3925 15.6381 11.2944C15.6001 11.1961 15.5291 11.1476 15.4253 11.1491L13.1063 11.1815L12.33 8.87283C12.2952 8.76947 12.2207 8.71859 12.1066 8.72018C11.9924 8.72177 11.9194 8.77471 11.8875 8.879L11.176 11.2084L8.85695 11.2408C8.75313 11.2422 8.68107 11.2927 8.64079 11.3921C8.6005 11.4913 8.62252 11.5756 8.70682 11.6449L10.649 13.1467L9.97178 15.4661C9.9399 15.5704 9.9696 15.6562 10.0609 15.7234C10.1522 15.7908 10.2441 15.7854 10.3367 15.7071L12.1838 14.2524ZM12.2971 22.3726C12.1933 22.374 12.0913 22.3671 11.9911 22.3519C11.8909 22.3366 11.7937 22.313 11.6996 22.2809C9.58046 21.5604 7.88423 20.2542 6.61087 18.3623C5.33751 16.4702 4.68539 14.4186 4.65453 12.2073L4.59167 7.70396C4.58639 7.32566 4.69128 6.98283 4.90635 6.67547C5.12124 6.36794 5.40013 6.14319 5.74302 6.00123L11.4051 3.79699C11.6181 3.71701 11.8285 3.67557 12.0361 3.67267C12.2438 3.66977 12.4552 3.70532 12.6704 3.77933L18.3918 5.82468C18.7385 5.95702 19.0236 6.1739 19.247 6.47531C19.4705 6.77655 19.5849 7.11632 19.5902 7.49461L19.6531 11.9979C19.6839 14.2092 19.0893 16.2783 17.8693 18.2052C16.6492 20.1319 14.9901 21.4849 12.8919 22.2643C12.7987 22.2989 12.7023 22.3253 12.6025 22.3433C12.5028 22.3614 12.401 22.3711 12.2971 22.3726ZM12.2766 20.9017C14.0021 20.3276 15.4199 19.2077 16.5301 17.5421C17.6403 15.8764 18.1814 14.0353 18.1532 12.0189L18.0902 7.5058C18.0893 7.44181 18.0709 7.38439 18.0348 7.33356C17.9989 7.28272 17.9487 7.24492 17.8842 7.22015L12.1629 5.1748C12.1307 5.16241 12.0953 5.15649 12.0569 5.15703C12.0184 5.15756 11.9832 5.16447 11.9514 5.17775L6.28934 7.38199C6.22554 7.40855 6.17642 7.44773 6.14197 7.49955C6.10736 7.55138 6.0905 7.60928 6.09139 7.67328L6.15438 12.1863C6.18253 14.2028 6.77473 16.0281 7.93098 17.6621C9.08723 19.2961 10.5358 20.376 12.2766 20.9017Z" fill="#333333"/>
</g>
</svg>
