<svg width="28" height="28" viewBox="0 0 28 28" fill="none" xmlns="http://www.w3.org/2000/svg">
<path d="M20.6058 7.38857C19.7464 6.52079 18.7228 5.83284 17.5946 5.36485C16.4665 4.89686 15.2565 4.6582 14.0351 4.66278C8.91757 4.66278 4.74686 8.83232 4.74218 13.9511C4.74218 15.5905 5.17108 17.1854 5.98085 18.5976L4.66718 23.4128L9.59374 22.1214C10.956 22.8646 12.4833 23.2535 14.0351 23.2522H14.0398C19.1586 23.2522 23.3281 19.0827 23.3328 13.9593C23.3338 12.7382 23.0933 11.5291 22.6251 10.4014C22.1569 9.2737 21.4714 8.24977 20.6058 7.38857ZM14.0351 21.6796C12.6514 21.6785 11.2932 21.3062 10.1023 20.6015L9.82108 20.4327L6.89843 21.1991L7.67889 18.3479L7.49608 18.0538C6.72242 16.8237 6.31325 15.3995 6.316 13.9464C6.316 9.69716 9.78124 6.23075 14.0398 6.23075C15.0544 6.22893 16.0592 6.42795 16.9965 6.81633C17.9338 7.20471 18.7849 7.77477 19.5008 8.49364C20.219 9.20983 20.7884 10.0611 21.1762 10.9983C21.564 11.9356 21.7624 12.9403 21.7601 13.9546C21.7555 18.219 18.2902 21.6796 14.0351 21.6796ZM18.2715 15.8975C18.0406 15.7815 16.9004 15.2202 16.6859 15.1405C16.4726 15.0643 16.3168 15.0245 16.1644 15.2565C16.0086 15.4874 15.5633 16.0136 15.4297 16.1647C15.2961 16.3206 15.1578 16.3382 14.9258 16.2233C14.6949 16.1061 13.9461 15.8624 13.0601 15.069C12.3687 14.4538 11.9058 13.6921 11.7676 13.4612C11.634 13.2292 11.7547 13.105 11.8707 12.989C11.9726 12.8858 12.1016 12.7171 12.2176 12.5835C12.3348 12.4499 12.3734 12.3515 12.4496 12.1968C12.5258 12.0397 12.4894 11.9061 12.432 11.7901C12.3734 11.6741 11.9105 10.5292 11.7148 10.0675C11.5273 9.61161 11.3363 9.67489 11.1933 9.66903C11.0598 9.66083 10.9039 9.66083 10.748 9.66083C10.6303 9.66383 10.5145 9.69108 10.4079 9.74089C10.3012 9.79069 10.206 9.86198 10.1281 9.95028C9.91483 10.1823 9.31835 10.7436 9.31835 11.8886C9.31835 13.0335 10.1504 14.1339 10.2676 14.2897C10.3824 14.4456 11.9012 16.7882 14.232 17.796C14.7828 18.0362 15.2164 18.178 15.5551 18.2858C16.1117 18.464 16.6144 18.437 17.0152 18.3796C17.4605 18.3116 18.3875 17.8171 18.5832 17.2745C18.7754 16.7308 18.7754 16.2667 18.7168 16.1694C18.6594 16.071 18.5035 16.0136 18.2715 15.8975Z" fill="#F8FAFA"/>
</svg>
